<svg xmlns="http://www.w3.org/2000/svg" xmlns:xlink="http://www.w3.org/1999/xlink" width="288.926" height="41.458" viewBox="0 0 288.926 41.458">
  <defs>
    <clipPath id="clip-path">
      <rect id="Rectangle_196" data-name="Rectangle 196" width="284.28" height="41.458" fill="#012f4c"/>
    </clipPath>
  </defs>
  <g id="Group_583" data-name="Group 583" transform="translate(-70 -51.271)">
    <g id="Group_481" data-name="Group 481" transform="translate(70 51.271)" style="isolation: isolate">
      <g id="Group_480" data-name="Group 480" transform="translate(0 0)" clip-path="url(#clip-path)">
        <path id="Path_1561" data-name="Path 1561" d="M29.52,39.915a20.8,20.8,0,0,1-6.632,1.48,4.37,4.37,0,0,1-.71.062h-.647a22.25,22.25,0,0,1-14.9-5.892A18.814,18.814,0,0,1,0,20.791a18.991,18.991,0,0,1,6.694-14.9A22.539,22.539,0,0,1,22.024,0a23.666,23.666,0,0,1,4.318.4A21.482,21.482,0,0,1,30.6,1.666a2.432,2.432,0,0,0,.37.092,2.183,2.183,0,0,0,.369.03,3.025,3.025,0,0,0,.74-.092,1.716,1.716,0,0,0,.617-.277,1.9,1.9,0,0,0,.432-.463,1.724,1.724,0,0,0,.247-.524l1.295.185v9.995H33.253a9.031,9.031,0,0,0-1.727-3.054,13.138,13.138,0,0,0-2.467-2.19,13.5,13.5,0,0,0-2.745-1.3,14.777,14.777,0,0,0-2.931-.678q-.433-.061-.864-.093c-.288-.02-.576-.031-.863-.031A13.628,13.628,0,0,0,10.4,8.729,19.071,19.071,0,0,0,6.107,20.791v.185a18.958,18.958,0,0,0,4.349,11.876,13.622,13.622,0,0,0,11.2,5.4,14.39,14.39,0,0,0,7.186-1.789,13.171,13.171,0,0,0,5.09-5.244H35.35v5.306a22.458,22.458,0,0,1-5.829,3.393" transform="translate(0 0)" fill="#012f4c"/>
        <path id="Path_1562" data-name="Path 1562" d="M77.934,40.893V39.6h.925a2.584,2.584,0,0,0,1.172-.278,2.29,2.29,0,0,0,.864-.709,1.272,1.272,0,0,0,.278-.4,1.167,1.167,0,0,0,.092-.462.5.5,0,0,0,.062-.216v-.216a2.354,2.354,0,0,0-.031-.37,2.68,2.68,0,0,0-.093-.37L77.131,26.087H63.189l-2.9,8.576A2.6,2.6,0,0,0,60.2,35a1.689,1.689,0,0,0-.031.339,1.072,1.072,0,0,0-.062.339v.339a3.611,3.611,0,0,0,.586,1.974,3.379,3.379,0,0,0,1.758,1.358q.371.062.833.154a4.893,4.893,0,0,0,.956.093v1.295H51.282V39.6h.925a2.839,2.839,0,0,0,.678-.093,3.545,3.545,0,0,0,.74-.278,7.922,7.922,0,0,0,1.727-1.2,9.9,9.9,0,0,0,1.481-1.635,6.414,6.414,0,0,0,.524-.864,6.252,6.252,0,0,0,.34-.8l11.227-33.5h3.948l12.956,33.5q.185.371.431.833a4.914,4.914,0,0,0,.617.9,14.941,14.941,0,0,0,1.388,1.45A9.031,9.031,0,0,0,89.9,39.1c.287.123.576.237.864.34a2.555,2.555,0,0,0,.864.154h.925v1.295ZM69.666,6.962l-5.49,16.287H76.021Z" transform="translate(-12.538 -0.299)" fill="#012f4c"/>
        <path id="Path_1563" data-name="Path 1563" d="M140.535,40.893a17.261,17.261,0,0,1-2.375-3.054q-1.142-1.82-2.189-3.732c-.083-.165-.165-.318-.247-.462s-.165-.278-.247-.4c-.041-.082-.092-.175-.154-.277s-.113-.195-.155-.278a51.453,51.453,0,0,0-3.978-6.231,6.885,6.885,0,0,0-5.213-3.023,6.73,6.73,0,0,0-.925-.062h-1.265a1.117,1.117,0,0,0-.34.062h-1.234V34.91a3.435,3.435,0,0,0,.093.77q.092.4.215.771a6.351,6.351,0,0,0,1.358,2.16,2.753,2.753,0,0,0,2.036.987h.925v1.295H112.588V39.6h.864a2.809,2.809,0,0,0,2.1-.987,6.339,6.339,0,0,0,1.358-2.16c.082-.246.154-.5.215-.771a3.392,3.392,0,0,0,.093-.77V6.1a3.475,3.475,0,0,0-.956-2.406,3.236,3.236,0,0,0-2.314-1.111,1.505,1.505,0,0,0-.524-.03,5.177,5.177,0,0,1-.586.03h-.556V1.225h16.657a13.035,13.035,0,0,1,8.422,3.085,9.853,9.853,0,0,1,3.794,8.02,9.815,9.815,0,0,1-2.129,6.231,12.254,12.254,0,0,1-5.336,3.949,9.5,9.5,0,0,1,2.19,2.159q.894,1.234,1.758,2.653.371.616.771,1.233t.833,1.234a3.355,3.355,0,0,0,.278.463c.1.144.216.3.339.462a1.519,1.519,0,0,1,.215.278c.063.1.134.215.217.34a51.683,51.683,0,0,0,4.565,5.737,7.2,7.2,0,0,0,5.429,2.529v1.295Zm-5.583-25.232a8.148,8.148,0,0,0,.586-3.023,8.377,8.377,0,0,0-2.375-5.8,7.949,7.949,0,0,0-6.138-2.591h-4.813V20.782h1.6a34.834,34.834,0,0,0,4.9-.216,7.427,7.427,0,0,0,4.349-2.19,7.632,7.632,0,0,0,1.881-2.715" transform="translate(-27.452 -0.299)" fill="#012f4c"/>
        <path id="Path_1564" data-name="Path 1564" d="M199.329,40.893a17.259,17.259,0,0,1-2.375-3.054q-1.142-1.82-2.189-3.732c-.083-.165-.165-.318-.247-.462s-.165-.278-.247-.4c-.041-.082-.092-.175-.154-.277s-.113-.195-.155-.278a51.453,51.453,0,0,0-3.978-6.231,6.885,6.885,0,0,0-5.213-3.023,6.73,6.73,0,0,0-.925-.062h-1.265a1.117,1.117,0,0,0-.34.062h-1.234V34.91a3.435,3.435,0,0,0,.093.77q.092.4.215.771a6.351,6.351,0,0,0,1.358,2.16,2.753,2.753,0,0,0,2.036.987h.925v1.295H171.382V39.6h.864a2.809,2.809,0,0,0,2.1-.987,6.339,6.339,0,0,0,1.358-2.16c.082-.246.154-.5.215-.771a3.393,3.393,0,0,0,.093-.77V6.1a3.475,3.475,0,0,0-.956-2.406,3.237,3.237,0,0,0-2.314-1.111,1.505,1.505,0,0,0-.524-.03,5.177,5.177,0,0,1-.586.03h-.556V1.225H187.73a13.035,13.035,0,0,1,8.422,3.085,9.853,9.853,0,0,1,3.794,8.02,9.815,9.815,0,0,1-2.129,6.231,12.254,12.254,0,0,1-5.336,3.949,9.5,9.5,0,0,1,2.19,2.159q.894,1.234,1.758,2.653.371.616.771,1.233t.833,1.234a3.358,3.358,0,0,0,.278.463c.1.144.216.3.339.462a1.556,1.556,0,0,1,.216.278c.062.1.133.215.216.34a51.683,51.683,0,0,0,4.565,5.737,7.2,7.2,0,0,0,5.429,2.529v1.295Zm-5.583-25.232a8.148,8.148,0,0,0,.586-3.023,8.377,8.377,0,0,0-2.375-5.8,7.949,7.949,0,0,0-6.138-2.591h-4.813V20.782h1.6a34.834,34.834,0,0,0,4.9-.216,7.427,7.427,0,0,0,4.349-2.19,7.631,7.631,0,0,0,1.881-2.715" transform="translate(-41.827 -0.299)" fill="#012f4c"/>
        <path id="Path_1565" data-name="Path 1565" d="M260.225,35.351a20.445,20.445,0,0,1-29.15,0,19.876,19.876,0,0,1-6.108-14.559,20.049,20.049,0,0,1,6.108-14.652,20.373,20.373,0,0,1,29.15,0A20.1,20.1,0,0,1,266.3,20.792a19.93,19.93,0,0,1-6.077,14.559m-6.6-28.811a13.611,13.611,0,0,0-9.531-3.948,12.278,12.278,0,0,0-1.45.092,12.149,12.149,0,0,0-1.512.278l-.74.247-.74.246A12.306,12.306,0,0,0,232.8,9.47a20.649,20.649,0,0,0-2.282,8.976V19a21.859,21.859,0,0,0,.308,3.671,23.2,23.2,0,0,0,.864,3.485,22.276,22.276,0,0,0,5.984,8.854,13.591,13.591,0,0,0,9.5,3.979,11.572,11.572,0,0,0,2.22-.216,12.841,12.841,0,0,0,2.221-.648,12.3,12.3,0,0,0,6.848-6.015,20.677,20.677,0,0,0,2.282-8.976V22.58a21.953,21.953,0,0,0-.308-3.671,23.452,23.452,0,0,0-.863-3.485,22.115,22.115,0,0,0-5.953-8.884" transform="translate(-55.004 0)" fill="#012f4c"/>
        <path id="Path_1566" data-name="Path 1566" d="M317.218,40.893H289.394V39.6h.926a2.6,2.6,0,0,0,1.974-.956,7.514,7.514,0,0,0,1.358-2.127,4.423,4.423,0,0,0,.277-.925,4.754,4.754,0,0,0,.093-.864V6.1a3.38,3.38,0,0,0-1.049-2.467A3.378,3.378,0,0,0,290.5,2.582h-.925V1.225h13.943V2.582H302.6A3.426,3.426,0,0,0,300.129,3.6a3.346,3.346,0,0,0-1.049,2.5V35.032a4.13,4.13,0,0,0,1.2,2.5,3.342,3.342,0,0,0,2.5,1.142l8.267.061a5.716,5.716,0,0,0,3.887-1.6,10.6,10.6,0,0,0,2.653-3.517,3.66,3.66,0,0,0,.308-.647,4.56,4.56,0,0,0,.186-.648l1.234.308Z" transform="translate(-70.757 -0.299)" fill="#012f4c"/>
        <path id="Path_1567" data-name="Path 1567" d="M364.5,40.893H336.675V39.6h.925a2.6,2.6,0,0,0,1.974-.956,7.513,7.513,0,0,0,1.358-2.127,4.423,4.423,0,0,0,.277-.925,4.825,4.825,0,0,0,.093-.864V6.1a3.379,3.379,0,0,0-1.049-2.467,3.382,3.382,0,0,0-2.467-1.049h-.925V1.225H350.8V2.582h-.925A3.426,3.426,0,0,0,347.41,3.6a3.347,3.347,0,0,0-1.049,2.5V35.032a4.131,4.131,0,0,0,1.2,2.5,3.342,3.342,0,0,0,2.5,1.142l8.267.061a5.717,5.717,0,0,0,3.887-1.6,10.6,10.6,0,0,0,2.653-3.517,3.664,3.664,0,0,0,.308-.647,4.555,4.555,0,0,0,.186-.648l1.234.308Z" transform="translate(-82.317 -0.299)" fill="#012f4c"/>
      </g>
    </g>
    <g id="Group_582" data-name="Group 582" transform="translate(354.279 87.561)">
      <g id="Group_237" data-name="Group 237">
        <path id="Path_302" data-name="Path 302" d="M405.936,241.738a2.324,2.324,0,1,1,2.323-2.324A2.327,2.327,0,0,1,405.936,241.738Zm0-4.509a2.186,2.186,0,1,0,2.186,2.186A2.189,2.189,0,0,0,405.936,237.228Z" transform="translate(-403.612 -237.09)" fill="#012f4c"/>
      </g>
      <g id="Group_239" data-name="Group 239" transform="translate(1.164 0.794)">
        <g id="Group_238" data-name="Group 238">
          <path id="Path_303" data-name="Path 303" d="M406.763,240.956l-.628-.938h-.507v.938h-.645v-2.931h1.34c.691,0,1.106.365,1.106.967V239a.91.91,0,0,1-.629.909l.716,1.046Zm.013-1.929c0-.277-.193-.419-.507-.419h-.641v.842h.653c.314,0,.494-.167.494-.414Z" transform="translate(-404.984 -238.026)" fill="#012f4c"/>
        </g>
      </g>
    </g>
  </g>
</svg>
