<svg xmlns="http://www.w3.org/2000/svg" viewBox="0 0 60.49 100.21"><defs><style>.bca3c8a5-3333-4c21-bc30-2282ffcbce2b{fill:#072f4c;}.eabfd3dc-979a-44e9-b9cb-d26400d376d7{fill:none;stroke:#89bcdc;stroke-miterlimit:10;}</style></defs><g id="b3323b39-d487-44d7-95d9-7748c1211bb6" data-name="Layer 2"><g id="ac36cb34-36c4-4461-ba9a-880fb62e57a1" data-name="Layer 1"><path id="effa479d-83c3-44d2-9583-ac7c38481918" data-name="Path 2162" class="bca3c8a5-3333-4c21-bc30-2282ffcbce2b" d="M59,76.82a2.26,2.26,0,0,1-.76-2.53c0-.39.19-1.17.19-1.36-.19-.58-.56-1-.56-1.55-.19-1-.19-1.17-.38-1.95a13.45,13.45,0,0,1-1-2.52,3.81,3.81,0,0,1,.57-2.53,7.1,7.1,0,0,0,.57-2.73,15.76,15.76,0,0,0-.19-2.91,5.91,5.91,0,0,1-.38-2.53c.19-1.36,1.7-4.08.56-5.44-.56-.39-1.13-.2-1.32-1,0-.39.38-1,.19-1.36-.19-1.16-1-.78-1.7-1-1.51-.39-2.08-2.33-1.7-3.69L42.4.54C28.65,2.06,14.1,3.37,1.47,4.4v.09c0,.77-.19,1.55-.19,2.33a17.94,17.94,0,0,1,0,3.11A13.2,13.2,0,0,0,.9,12.65c0,3.5.38,7,.38,10.7V29c0,1.55-.38,3.11-.38,4.86a101.48,101.48,0,0,0,.19,10.89c.19,2.14,0,4.27,0,6.22,0,2.33.19,4.47.19,6.61,0,4.08.38,8,.38,12.06,0,1.94.38,3.89.38,5.83V81.3c0,1.16.18,2.33-.57,3.11-.76,1-.76,1.16-.57,2.13a5.14,5.14,0,0,1,.19,1.56c.75.58.38,2-.19,2.53-.19.39-.38.39-.38.78a14.94,14.94,0,0,0,.19,2.91,13.84,13.84,0,0,1-.14,3.15.5.5,0,0,1,.13,0c1.86.67,1.44,2.59,3.94,2.14.36-.68.44-2.08,1.21-2.43,1-.44,1.5.75,2.2.88-.14-1.51,1.41-2.73,1.83-4.16.29-1,.19-4.25,2-3.75-.92,2.45.55,2.09,1.74,3.7,1,1.38-.17,3.14-.37,4.6.9.2,2.79-.56,3.76-.75.47-.1,1-.58,1.51-.39s.26,1,.71,1.22a1,1,0,0,0,.37.1,15.66,15.66,0,0,0-.13-3c-.25-1.71-1.35-2.05-1.85-3.49-.28-.78.21-1.77,0-2.54s-.9-1.14-1.34-1.7c-.84-1.06-1.6-2.14-1.27-3.59,1.87,1.2,6.8-.32,8.9-.56l36-4.08a5.58,5.58,0,0,1-.15-1.15c0-1-.19-1-.76-1.75"/><path id="f787ea13-2d55-485f-b0c1-e9c8747cde03" data-name="Path 2163" class="eabfd3dc-979a-44e9-b9cb-d26400d376d7" d="M59,76.82a2.26,2.26,0,0,1-.76-2.53c0-.39.19-1.17.19-1.36-.19-.58-.56-1-.56-1.55-.19-1-.19-1.17-.38-1.95a13.45,13.45,0,0,1-1-2.52,3.81,3.81,0,0,1,.57-2.53,7.1,7.1,0,0,0,.57-2.73,15.76,15.76,0,0,0-.19-2.91,5.91,5.91,0,0,1-.38-2.53c.19-1.36,1.7-4.08.56-5.44-.56-.39-1.13-.2-1.32-1,0-.39.38-1,.19-1.36-.19-1.16-1-.78-1.7-1-1.51-.39-2.08-2.33-1.7-3.69L42.4.54C28.65,2.06,14.1,3.37,1.47,4.4v.09c0,.77-.19,1.55-.19,2.33a17.94,17.94,0,0,1,0,3.11A13.2,13.2,0,0,0,.9,12.65c0,3.5.38,7,.38,10.7V29c0,1.55-.38,3.11-.38,4.86a101.48,101.48,0,0,0,.19,10.89c.19,2.14,0,4.27,0,6.22,0,2.33.19,4.47.19,6.61,0,4.08.38,8,.38,12.06,0,1.94.38,3.89.38,5.83V81.3c0,1.16.18,2.33-.57,3.11-.76,1-.76,1.16-.57,2.13a5.14,5.14,0,0,1,.19,1.56c.75.58.38,2-.19,2.53-.19.39-.38.39-.38.78a14.94,14.94,0,0,0,.19,2.91,13.84,13.84,0,0,1-.14,3.15.5.5,0,0,1,.13,0c1.86.67,1.44,2.59,3.94,2.14.36-.68.44-2.08,1.21-2.43,1-.44,1.5.75,2.2.88-.14-1.51,1.41-2.73,1.83-4.16.29-1,.19-4.25,2-3.75-.92,2.45.55,2.09,1.74,3.7,1,1.38-.17,3.14-.37,4.6.9.2,2.79-.56,3.76-.75.47-.1,1-.58,1.51-.39s.26,1,.71,1.22a1,1,0,0,0,.37.1,15.66,15.66,0,0,0-.13-3c-.25-1.71-1.35-2.05-1.85-3.49-.28-.78.21-1.77,0-2.54s-.9-1.14-1.34-1.7c-.84-1.06-1.6-2.14-1.27-3.59,1.87,1.2,6.8-.32,8.9-.56l36-4.08a5.58,5.58,0,0,1-.15-1.15C59.72,77.6,59.53,77.6,59,76.82Z"/></g></g></svg>