<svg xmlns="http://www.w3.org/2000/svg" viewBox="0 0 114.4 93.35"><defs><style>.fc214d06-c540-4630-adef-bb8c23fcaf54{fill:#072f4c;}.b9224803-5127-4b71-ab82-b774f7be03e4{fill:none;stroke:#89bcdc;stroke-miterlimit:10;}</style></defs><g id="b874ef86-ef24-46cb-9f34-b6014c07fd08" data-name="Layer 2"><g id="feaebcc2-218c-435c-bac9-7dae0f5a5cb5" data-name="Layer 1"><path id="fabaecdd-670c-4dd8-9920-012f818adee1" data-name="Path 2174" class="fc214d06-c540-4630-adef-bb8c23fcaf54" d="M84.8,8.84C61.28,7.19,32.09,3.52,10.68.56L.56,83.43c32.32,4,64.63,6.68,94.33,8.52q7.69.47,15.14.87l2.85-61.71,1-21.63c-7.22.5-17.46.18-29.08-.64"/><path id="e03ccee5-7a50-4eb8-a939-946c75c3a20b" data-name="Path 2175" class="b9224803-5127-4b71-ab82-b774f7be03e4" d="M84.8,8.84C61.28,7.19,32.09,3.52,10.68.56L.56,83.43c32.32,4,64.63,6.68,94.33,8.52q7.69.47,15.14.87l2.85-61.71,1-21.63C106.65,10,96.42,9.66,84.8,8.84Z"/></g></g></svg>