<svg xmlns="http://www.w3.org/2000/svg" viewBox="0 0 145.68 114.2"><defs><style>.fe2b89a8-d749-4fb6-93b7-2f69799bd349{fill:#072f4c;}.b17fa9fb-ba29-49fc-a60b-a3e36146c384{fill:none;stroke:#89bcdc;stroke-miterlimit:10;}</style></defs><g id="b3c88291-cb96-4807-8e70-80d4aec460a8" data-name="Layer 2"><g id="ffe325df-82a5-4774-b3b6-da7233b1395d" data-name="Layer 1"><path id="e1975462-3630-4060-bd85-cd483f458849" data-name="Path 2160" class="fe2b89a8-d749-4fb6-93b7-2f69799bd349" d="M144,85.63a31,31,0,0,0-1-5.22c-.74-3.25-2.07-6.48-3.06-9.67s-1.93-6.8-3.72-9.4a18.53,18.53,0,0,0-3.58-3.87c-1.18-1-3-1.47-2.95-3.33,1.61,1.14,3.17,4,4.88,4.69,2,.79.36-1.47,0-2.52-.5-1.63-.38-2.64-1.58-3.89-2.1-2.17-2.94-5.36-4.22-8A28.94,28.94,0,0,0,124,38c-1.12-1.22-2.37-1.65-3.36-3S118.68,33,118,31.4c1.25,0,4.4,1.61,4.14-.73-.17-1.56-2.54-2.24-3.58-3-1.88-1.42-5-3.44-6-5.67a39.28,39.28,0,0,1-1.22-4.62c-.46-1.5-.77-3-1.21-4.54A67.29,67.29,0,0,0,107.23,4c-.54-1.16-1.46-2.07-2-3.19-.7.7-1.43,1.39-2.16,2-.94,1-2.27.2-3.4-.19A1.9,1.9,0,0,0,97,3.31a1.81,1.81,0,0,0-.22.54c-.38,1.37,0,2.34,0,3.5-.19,1.37-.57,2.72-2.09,2.34-1.32-.2-1.32-1.75-2.45-1.95a6.65,6.65,0,0,0-1.89,0L48,11.24a4.14,4.14,0,0,1-.93,0,2,2,0,0,1,.39-.25l-.34.11a3.64,3.64,0,0,1,1.24-.38C47,10.61,45.9,7.8,45.51,6l-36,4.09c-2.1.23-7,1.76-8.9.56-.33,1.45.43,2.52,1.27,3.59.44.55,1.11.94,1.34,1.69s-.25,1.77,0,2.55c.5,1.44,1.6,1.78,1.85,3.49a14.84,14.84,0,0,1,.12,3c.94.1,1.87-.9,2.62-1.43a4,4,0,0,1,3.86-.83c-1.4,2.52,4.4.76,4.72-.4a4.13,4.13,0,0,1-1.85.13c.54-1.34,2.74-3.84,4.1-4.35,1.86-.7,4.33.2,6,.9-.57-.15-1.51,0-1.48.79,0,1,1.12.34,1.67.26a33.55,33.55,0,0,1,4.24-.48c1.58,0,2.33.59,3.56,1.5.84.62,2.47,2.86,3.19,2.95.28-1.5-.91-2.7-.39-4.19.83,1.49,3.68,2.89,3.42,4.77-.38,0-.54.23-.9.27A7.8,7.8,0,0,0,40.44,27c.82.46,2.5.32,3,1.33s-.25,2.52.21,3.55c.67,0,1.1-.55,1.52-1.1,1.48.79,3-2.74,4.89-1.48,1.06.73-.07,2.13,1.56,2,1.11-.08,1.54-1.29,1.48-2.29,2.11,1,2.07.4,2.7-1.49s1.75-1.73,3.48-1.87c0-.89-.91-.67-.93-1.5,0-.36.79-1.09,1-1.35.76-.8,2.32-1,2.81-1.76,3.23,1.27,6.26,3.38,9.37,4.95a10.52,10.52,0,0,1,3.87,3.13c.8,1.09.82,2.39,1.93,3.19.55.39,1.1.27,1.59.84s.44,1.61,1,2.19c1.21,1.3,3,.26,4.55.87,2,.83,3.36,4.14,4.75,5.8,1.74,2.09,1.58,4.24,1.32,6.81-.28,2.74-2.78,4.94-1.57,7.9a4,4,0,0,1,.49,3.07c-.23,1.33-.48,2.08.16,3.31.25.46,1.3,2.08,1.84,2.23,1.52.43,1.06-1.18,1.14-2.29,1.54.33,1.11-2.15,3-1.75a11.82,11.82,0,0,1-.84,6.19c-1,2.1-1.16,2.92.75,4.52,1.56,1.31,1.46,2.42,2.53,4,1.63,2.49,2.52,8.53,6.65,7.14-.94-1.9-.13-5.38,1-2.07.45,1.37.13,5.89,2.25,5.77.1-.57.44-2.28,1.36-1.91s.26,1.87.17,2.53a6.14,6.14,0,0,0-.22,1.21c.1.51.61.61.7,1,.21.84,0,1.75.24,2.6.89,2.8,3.29,4.66,5,6.93s3.75,2.19,6.66,2.13,3.81.55,5.41,2.88c1.83,2.68,2.21,3.5,5.24,2.27,3.92-1.58,3.08,2.15.25,3.17-1.36.49-6.61-.11-6.57,2.37s4.78,1.38,6,.9c2.39-1,4.86-1.29,7.24-2.16,5-1.8,2.57-12,4-16.27.77.85,1.1,4.25,1.71,1.6.39-1.66-.31-4-.64-5.59a34.31,34.31,0,0,1-.39-5"/><path id="a588b417-2aae-4cfd-9efc-4f59f573ef42" data-name="Path 2161" class="b17fa9fb-ba29-49fc-a60b-a3e36146c384" d="M144,85.63a31,31,0,0,0-1-5.22c-.74-3.25-2.07-6.48-3.06-9.67s-1.93-6.8-3.72-9.4a18.53,18.53,0,0,0-3.58-3.87c-1.18-1-3-1.47-2.95-3.33,1.61,1.14,3.17,4,4.88,4.69,2,.79.36-1.47,0-2.52-.5-1.63-.38-2.64-1.58-3.89-2.1-2.17-2.94-5.36-4.22-8A28.94,28.94,0,0,0,124,38c-1.12-1.22-2.37-1.65-3.36-3S118.68,33,118,31.4c1.25,0,4.4,1.61,4.14-.73-.17-1.56-2.54-2.24-3.58-3-1.88-1.42-5-3.44-6-5.67a39.28,39.28,0,0,1-1.22-4.62c-.46-1.5-.77-3-1.21-4.54A67.29,67.29,0,0,0,107.23,4c-.54-1.16-1.46-2.07-2-3.19-.7.7-1.43,1.39-2.16,2-.94,1-2.27.2-3.4-.19A1.9,1.9,0,0,0,97,3.31a1.81,1.81,0,0,0-.22.54c-.38,1.37,0,2.34,0,3.5-.19,1.37-.57,2.72-2.09,2.34-1.32-.2-1.32-1.75-2.45-1.95a6.65,6.65,0,0,0-1.89,0L48,11.24a4.14,4.14,0,0,1-.93,0,2,2,0,0,1,.39-.25l-.34.11a3.64,3.64,0,0,1,1.24-.38C47,10.61,45.9,7.8,45.51,6l-36,4.09c-2.1.23-7,1.76-8.9.56-.33,1.45.43,2.52,1.27,3.59.44.55,1.11.94,1.34,1.69s-.25,1.77,0,2.55c.5,1.44,1.6,1.78,1.85,3.49a14.84,14.84,0,0,1,.12,3c.94.1,1.87-.9,2.62-1.43a4,4,0,0,1,3.86-.83c-1.4,2.52,4.4.76,4.72-.4a4.13,4.13,0,0,1-1.85.13c.54-1.34,2.74-3.84,4.1-4.35,1.86-.7,4.33.2,6,.9-.57-.15-1.51,0-1.48.79,0,1,1.12.34,1.67.26a33.55,33.55,0,0,1,4.24-.48c1.58,0,2.33.59,3.56,1.5.84.62,2.47,2.86,3.19,2.95.28-1.5-.91-2.7-.39-4.19.83,1.49,3.68,2.89,3.42,4.77-.38,0-.54.23-.9.27A7.8,7.8,0,0,0,40.44,27c.82.46,2.5.32,3,1.33s-.25,2.52.21,3.55c.67,0,1.1-.55,1.52-1.1,1.48.79,3-2.74,4.89-1.48,1.06.73-.07,2.13,1.56,2,1.11-.08,1.54-1.29,1.48-2.29,2.11,1,2.07.4,2.7-1.49s1.75-1.73,3.48-1.87c0-.89-.91-.67-.93-1.5,0-.36.79-1.09,1-1.35.76-.8,2.32-1,2.81-1.76,3.23,1.27,6.26,3.38,9.37,4.95a10.52,10.52,0,0,1,3.87,3.13c.8,1.09.82,2.39,1.93,3.19.55.39,1.1.27,1.59.84s.44,1.61,1,2.19c1.21,1.3,3,.26,4.55.87,2,.83,3.36,4.14,4.75,5.8,1.74,2.09,1.58,4.24,1.32,6.81-.28,2.74-2.78,4.94-1.57,7.9a4,4,0,0,1,.49,3.07c-.23,1.33-.48,2.08.16,3.31.25.46,1.3,2.08,1.84,2.23,1.52.43,1.06-1.18,1.14-2.29,1.54.33,1.11-2.15,3-1.75a11.82,11.82,0,0,1-.84,6.19c-1,2.1-1.16,2.92.75,4.52,1.56,1.31,1.46,2.42,2.53,4,1.63,2.49,2.52,8.53,6.65,7.14-.94-1.9-.13-5.38,1-2.07.45,1.37.13,5.89,2.25,5.77.1-.57.44-2.28,1.36-1.91s.26,1.87.17,2.53a6.14,6.14,0,0,0-.22,1.21c.1.51.61.61.7,1,.21.84,0,1.75.24,2.6.89,2.8,3.29,4.66,5,6.93s3.75,2.19,6.66,2.13,3.81.55,5.41,2.88c1.83,2.68,2.21,3.5,5.24,2.27,3.92-1.58,3.08,2.15.25,3.17-1.36.49-6.61-.11-6.57,2.37s4.78,1.38,6,.9c2.39-1,4.86-1.29,7.24-2.16,5-1.8,2.57-12,4-16.27.77.85,1.1,4.25,1.71,1.6.39-1.66-.31-4-.64-5.59A33.17,33.17,0,0,1,144,85.63Z"/></g></g></svg>