<svg xmlns="http://www.w3.org/2000/svg" viewBox="0 0 85.48 91.85"><defs><style>.bbbc475a-e783-487e-bf67-259b206b9f56{fill:#072f4c;}.e28b0c77-40f5-4c2a-ae2c-50e09c2b3cd1{fill:none;stroke:#9cc6e2;stroke-miterlimit:10;}</style></defs><g id="a5a474e7-c61f-42ba-94e1-1534880e0b67" data-name="Layer 2"><g id="e77ae2f6-25cc-4130-b60b-5c4e5b654601" data-name="Layer 1"><path id="bc50e415-cc56-4a4c-a138-543817d73fd9" data-name="Path 2000" class="bbbc475a-e783-487e-bf67-259b206b9f56" d="M84.82,55.46l-.15.16c-.27.28-.73.25-1,.57s-.16.77-.34,1c-.64.88-.87.86-2,1-.83.08-1.56-.54-2.16.58s.29.95.67,1.72c.51,1-.28,3.08-1.42,3.77,0,.67.54,1.19.5,1.88-.86.26-2.16,1.07-2,2.11s1.35,1.28,1.22,2.78-1.06,1.82-2,2.76c-.63.65-1.21.54-.2,1.29a4.29,4.29,0,0,0,1.84.26c-.49,1.62-1,3.15-.41,4.83a4.82,4.82,0,0,0,.33.77c-.7.7-1.43,1.39-2.16,2-.94,1-2.27.2-3.4-.2a1.89,1.89,0,0,0-2.61.63,1.81,1.81,0,0,0-.22.54c-.38,1.36,0,2.33,0,3.5-.19,1.36-.57,2.72-2.08,2.33C66,89.6,66,88,64.84,87.85a6,6,0,0,0-1.89,0l-42.36,3.5a4.24,4.24,0,0,1-.94,0,2.59,2.59,0,0,1,.39-.25,8.84,8.84,0,0,1,1.43-.29h-.35l-.17,0c-1.36-.07-2.47-2.88-2.86-4.71a5.58,5.58,0,0,1-.15-1.15c0-1-.19-1-.76-1.75a2.26,2.26,0,0,1-.76-2.53c0-.38.19-1.16.19-1.36-.19-.58-.56-1-.56-1.55-.19-1-.19-1.17-.38-2a14.18,14.18,0,0,1-.95-2.52,3.81,3.81,0,0,1,.57-2.53A7.09,7.09,0,0,0,15.86,68a15.81,15.81,0,0,0-.19-2.92,5.91,5.91,0,0,1-.38-2.53c.19-1.36,1.7-4.08.57-5.44-.57-.39-1.14-.2-1.33-1,0-.39.38-1,.19-1.37-.19-1.16-.94-.77-1.7-1-1.51-.39-2.08-2.33-1.7-3.69L.62,6.9c7.25-.8,14.27-1.65,20.67-2.56C29.13,3.24,36,2.06,41.27.83a7.86,7.86,0,0,0-1.4,2.43c-.19.78-.19,1.17-.38,1.75a2.52,2.52,0,0,0-.38,2.53c.38,1.16.76,3.11,2.28,3.5.94.2,1.7-.2,2.64.2a3.85,3.85,0,0,1,1.14,1.36c.56.58.75.19,1.32.39a6.29,6.29,0,0,1,1.89,2.52c.89,1.83,2.52,2.33,3.11,4.3.78,2.6.9,2.06,3.13,3.48,1.12.72,1.81,2,2.88,2.68,1.25.83,2.36,1.77,3.6,2.72,2.17,1.68,2.85,3.77,5.62,4.91A9.31,9.31,0,0,1,69,35.15a12.94,12.94,0,0,0,2.65,1.75c.57.39,1,1.75,1.33,2.53.18.39.18,1,.37,1.55,0,.39.38.78.57,1.17.38.78.38,1.75,1,2.33.38.39.94.39,1.13,1a3.21,3.21,0,0,1,.76,1.36c.38.39.94.58,1.32,1a3.84,3.84,0,0,1,.38,1.36c.19,1-.19,1.75,1,2.14A5.82,5.82,0,0,1,82,53a1.91,1.91,0,0,0,.95.78,14.2,14.2,0,0,1,1.83,1.64"/><path id="e79f936b-acd2-4eea-b858-2cd8629af08c" data-name="Path 2001" class="e28b0c77-40f5-4c2a-ae2c-50e09c2b3cd1" d="M84.82,55.46l-.15.16c-.27.28-.73.25-1,.57s-.16.77-.34,1c-.64.88-.87.86-2,1-.83.08-1.56-.54-2.16.58s.29.95.67,1.72c.51,1-.28,3.08-1.42,3.77,0,.67.54,1.19.5,1.88-.86.26-2.16,1.07-2,2.11s1.35,1.28,1.22,2.78-1.06,1.82-2,2.76c-.63.65-1.21.54-.2,1.29a4.29,4.29,0,0,0,1.84.26c-.49,1.62-1,3.15-.41,4.83a4.82,4.82,0,0,0,.33.77c-.7.7-1.43,1.39-2.16,2-.94,1-2.27.2-3.4-.2a1.89,1.89,0,0,0-2.61.63,1.81,1.81,0,0,0-.22.54c-.38,1.36,0,2.33,0,3.5-.19,1.36-.57,2.72-2.08,2.33C66,89.6,66,88,64.84,87.85a6,6,0,0,0-1.89,0l-42.36,3.5a4.24,4.24,0,0,1-.94,0,2.59,2.59,0,0,1,.39-.25,8.84,8.84,0,0,1,1.43-.29h-.35l-.17,0c-1.36-.07-2.47-2.88-2.86-4.71a5.58,5.58,0,0,1-.15-1.15c0-1-.19-1-.76-1.75a2.26,2.26,0,0,1-.76-2.53c0-.38.19-1.16.19-1.36-.19-.58-.56-1-.56-1.55-.19-1-.19-1.17-.38-2a14.18,14.18,0,0,1-.95-2.52,3.81,3.81,0,0,1,.57-2.53A7.09,7.09,0,0,0,15.86,68a15.81,15.81,0,0,0-.19-2.92,5.91,5.91,0,0,1-.38-2.53c.19-1.36,1.7-4.08.57-5.44-.57-.39-1.14-.2-1.33-1,0-.39.38-1,.19-1.37-.19-1.16-.94-.77-1.7-1-1.51-.39-2.08-2.33-1.7-3.69L.62,6.9c7.25-.8,14.27-1.65,20.67-2.56C29.13,3.24,36,2.06,41.27.83a7.86,7.86,0,0,0-1.4,2.43c-.19.78-.19,1.17-.38,1.75a2.52,2.52,0,0,0-.38,2.53c.38,1.16.76,3.11,2.28,3.5.94.2,1.7-.2,2.64.2a3.85,3.85,0,0,1,1.14,1.36c.56.58.75.19,1.32.39a6.29,6.29,0,0,1,1.89,2.52c.89,1.83,2.52,2.33,3.11,4.3.78,2.6.9,2.06,3.13,3.48,1.12.72,1.81,2,2.88,2.68,1.25.83,2.36,1.77,3.6,2.72,2.17,1.68,2.85,3.77,5.62,4.91A9.31,9.31,0,0,1,69,35.15a12.94,12.94,0,0,0,2.65,1.75c.57.39,1,1.75,1.33,2.53.18.39.18,1,.37,1.55,0,.39.38.78.57,1.17.38.78.38,1.75,1,2.33.38.39.94.39,1.13,1a3.21,3.21,0,0,1,.76,1.36c.38.39.94.58,1.32,1a3.84,3.84,0,0,1,.38,1.36c.19,1-.19,1.75,1,2.14A5.82,5.82,0,0,1,82,53a1.91,1.91,0,0,0,.95.78A14.9,14.9,0,0,1,84.82,55.46Z"/></g></g></svg>