<svg xmlns="http://www.w3.org/2000/svg" viewBox="0 0 117.72 65.62"><defs><style>.b8f22adb-445d-4890-bb1e-98733658aeb9{fill:#072f4c;}.f5593418-34b6-4d9f-9e2b-3ab370147d15{fill:none;stroke:#89bcdc;stroke-miterlimit:10;}</style></defs><g id="b7f0a799-eda4-40e6-b61f-599f2cada28a" data-name="Layer 2"><g id="be8dc8f3-1998-4a25-881b-1e384c919fb3" data-name="Layer 1"><path id="f6d251e7-2638-4187-9b95-eb8ed88c2eba" data-name="Path 2172" class="b8f22adb-445d-4890-bb1e-98733658aeb9" d="M113.28,18.47c-.67-.62-1.23-1.34-1.9-1.94s-1.48-.9-1.87-1.66-.07-1.53-.11-2.31a4.36,4.36,0,0,1,.09-2.18c.58-1.37,1.7-3,.72-4.48s-2.67,0-3.93-1.21a3.43,3.43,0,0,1-.79-1.32C77.35,5.29,18.39,1.55,3.37.53L.52,62.25c62.15,3.32,109.9,2.88,116.68,2.8l-1.54-43.27c.19-1.48-1.48-2.47-2.38-3.31"/><path id="bc8d8965-32fa-4766-b1b2-ea0c194be3f7" data-name="Path 2173" class="f5593418-34b6-4d9f-9e2b-3ab370147d15" d="M113.28,18.47c-.67-.62-1.23-1.34-1.9-1.94s-1.48-.9-1.87-1.66-.07-1.53-.11-2.31a4.36,4.36,0,0,1,.09-2.18c.58-1.37,1.7-3,.72-4.48s-2.67,0-3.93-1.21a3.43,3.43,0,0,1-.79-1.32C77.35,5.29,18.39,1.55,3.37.53L.52,62.25c62.15,3.32,109.9,2.88,116.68,2.8l-1.54-43.27C115.85,20.29,114.18,19.31,113.28,18.47Z"/></g></g></svg>