<svg xmlns="http://www.w3.org/2000/svg" viewBox="0 0 52.87 103.82"><defs><style>.fa57f266-75f9-47c6-a28f-b6842fd1aff8{fill:#072f4c;}.bd850e39-a85f-44e4-a395-7c1f8770dc49{fill:none;stroke:#89bcdc;stroke-miterlimit:10;}</style></defs><g id="b229699d-8014-418e-b491-194843e017e1" data-name="Layer 2"><g id="f5f997f7-62a4-42ec-ada7-b20256cf0db8" data-name="Layer 1"><path id="a557d4c5-d998-4ff8-a07d-5da599ca6a2a" data-name="Path 2164" class="fa57f266-75f9-47c6-a28f-b6842fd1aff8" d="M52.35,77.43V71.6c0-1.94-.38-3.89-.38-5.83,0-4.09-.38-8-.38-12.06,0-2.14-.19-4.28-.19-6.61,0-1.94.19-4.08,0-6.22A101.48,101.48,0,0,1,51.21,30c0-1.75.38-3.3.38-4.86V19.49c0-3.7-.38-7.2-.38-10.69a13.3,13.3,0,0,1,.38-2.73,17.94,17.94,0,0,0,0-3.11c0-.78.19-1.55.19-2.33V.54C34.92,1.92,21.48,2.81,18,3a12.54,12.54,0,0,0-2,5.24c-.17,1,.06,2-.76,2.6-.07,0-.58-.25-1,.12a4,4,0,0,0-.6,1.45c-.25,1-.29,4.85-1.77,4.75-.24-1.12-1.87-.05-2.06.65-1.55,0,.08,3.41-1.11,4.4-.79.66-1.35.06-1.65,1.45a26.89,26.89,0,0,0,0,3.11,4.17,4.17,0,0,1-1,2.47c-.84.92-1,.74-1.29,2.1s-2.16,3.6-.75,4.9c.84-.72,2.06-3.4,2.9-1.82.93,1.75-1.77,3-1.75,4.51,1.51,1.16,3,.15,1.75,2.65a3.52,3.52,0,0,0-.51,2.3c0,.12.07.36.13.62h0A3.84,3.84,0,0,0,7,45.86c.47.37,1.54-.64,1.65.52.07.64-1.24,1.43-1.4,1.94a10.27,10.27,0,0,0,.29,4.09c.8,1.3,2.07-.35,2.9.28s-.47,2.5-.66,3a3.24,3.24,0,0,0-.38,1.56c.1.73.53.65.72,1.16A2.54,2.54,0,0,1,9.45,61c-.28.37-.8.6-1,1.06-.33.7,0,.95,0,1.57,0,1.31-.48,1-1.48,1.68s-.56,1.74-1.29,2.43S4,68,3.79,69.19a3.87,3.87,0,0,0,0,1c1.28-.2,1.08.5.49,1.08s-2,.93-1.9,2c.12.92,1.43.57.67,1.59s-1.93.49-1.17,2.12c.41.88,1.3.92.26,2C.85,80.33.19,80.2.64,82.15a22.22,22.22,0,0,1,.52,4.14A10.82,10.82,0,0,0,4.42,86l11.13-.74,8.68-.59c1.78-.12,4.41-.82,6.16-.41,1.91.45.49,2.81-.15,4.17a4.15,4.15,0,0,0-.47,2.76c.23.67.83,1.13,1.13,1.81.36.84.24,1.16,1,1.78.62.49,1.38.83,2,1.36A4.71,4.71,0,0,1,35.29,99c.05.4-.12,1.21.07,1.54s1,.42,1.4.56a5.92,5.92,0,0,1,2.13,1.64,2.07,2.07,0,0,0,0-.61c-.09-.92-1.16-1.53-1-2.5.2-1.14,3-2.35,3.94-2.71,1.51-.55,3.12-.35,4.57-1.13a6.92,6.92,0,0,0,.77-.52v-.13h.19v.19c.57.4,1,1.17,1.7,1.37,1.33.38,1.7-1,1.7-2.14,0-.32,0-.63,0-.94A13.84,13.84,0,0,0,51,90.45a14.94,14.94,0,0,1-.19-2.91c0-.39.19-.39.38-.78.57-.58,1-1.94.19-2.53a4.84,4.84,0,0,0-.19-1.56c-.19-1-.19-1.16.57-2.13.75-.78.57-2,.57-3.11"/><path id="a22326f0-13c0-4bec-be77-1afaf214a1ea" data-name="Path 2165" class="bd850e39-a85f-44e4-a395-7c1f8770dc49" d="M52.35,77.43V71.6c0-1.94-.38-3.89-.38-5.83,0-4.09-.38-8-.38-12.06,0-2.14-.19-4.28-.19-6.61,0-1.94.19-4.08,0-6.22A101.48,101.48,0,0,1,51.21,30c0-1.75.38-3.3.38-4.86V19.49c0-3.7-.38-7.2-.38-10.69a13.3,13.3,0,0,1,.38-2.73,17.94,17.94,0,0,0,0-3.11c0-.78.19-1.55.19-2.33V.54C34.92,1.92,21.48,2.81,18,3a12.54,12.54,0,0,0-2,5.24c-.17,1,.06,2-.76,2.6-.07,0-.58-.25-1,.12a4,4,0,0,0-.6,1.45c-.25,1-.29,4.85-1.77,4.75-.24-1.12-1.87-.05-2.06.65-1.55,0,.08,3.41-1.11,4.4-.79.66-1.35.06-1.65,1.45a26.89,26.89,0,0,0,0,3.11,4.17,4.17,0,0,1-1,2.47c-.84.92-1,.74-1.29,2.1s-2.16,3.6-.75,4.9c.84-.72,2.06-3.4,2.9-1.82.93,1.75-1.77,3-1.75,4.51,1.51,1.16,3,.15,1.75,2.65a3.52,3.52,0,0,0-.51,2.3c0,.12.07.36.13.62h0A3.84,3.84,0,0,0,7,45.86c.47.37,1.54-.64,1.65.52.07.64-1.24,1.43-1.4,1.94a10.27,10.27,0,0,0,.29,4.09c.8,1.3,2.07-.35,2.9.28s-.47,2.5-.66,3a3.24,3.24,0,0,0-.38,1.56c.1.73.53.65.72,1.16A2.54,2.54,0,0,1,9.45,61c-.28.37-.8.6-1,1.06-.33.7,0,.95,0,1.57,0,1.31-.48,1-1.48,1.68s-.56,1.74-1.29,2.43S4,68,3.79,69.19a3.87,3.87,0,0,0,0,1c1.28-.2,1.08.5.49,1.08s-2,.93-1.9,2c.12.92,1.43.57.67,1.59s-1.93.49-1.17,2.12c.41.88,1.3.92.26,2C.85,80.33.19,80.2.64,82.15a22.22,22.22,0,0,1,.52,4.14A10.82,10.82,0,0,0,4.42,86l11.13-.74,8.68-.59c1.78-.12,4.41-.82,6.16-.41,1.91.45.49,2.81-.15,4.17a4.15,4.15,0,0,0-.47,2.76c.23.67.83,1.13,1.13,1.81.36.84.24,1.16,1,1.78.62.49,1.38.83,2,1.36A4.71,4.71,0,0,1,35.29,99c.05.4-.12,1.21.07,1.54s1,.42,1.4.56a5.92,5.92,0,0,1,2.13,1.64,2.07,2.07,0,0,0,0-.61c-.09-.92-1.16-1.53-1-2.5.2-1.14,3-2.35,3.94-2.71,1.51-.55,3.12-.35,4.57-1.13a6.92,6.92,0,0,0,.77-.52v-.13h.19v.19c.57.4,1,1.17,1.7,1.37,1.33.38,1.7-1,1.7-2.14,0-.32,0-.63,0-.94A13.84,13.84,0,0,0,51,90.45a14.94,14.94,0,0,1-.19-2.91c0-.39.19-.39.38-.78.57-.58,1-1.94.19-2.53a4.84,4.84,0,0,0-.19-1.56c-.19-1-.19-1.16.57-2.13C52.53,79.76,52.35,78.6,52.35,77.43Z"/></g></g></svg>