<svg xmlns="http://www.w3.org/2000/svg" viewBox="0 0 101.16 159.85"><defs><style>.eede9227-99d1-4646-b9c9-00443515453c{fill:#072f4c;}.aa0e05e6-f1b4-4cab-9515-494956978c08{fill:none;stroke:#89bcdc;stroke-miterlimit:10;}</style></defs><g id="e80dea88-4032-4c39-882d-6e9e9f5a5260" data-name="Layer 2"><g id="a13dfa29-506a-4e6b-99db-f7b5ae043d0e" data-name="Layer 1"><path id="bff03013-1b4b-4383-8a37-dbcf639a20bc" data-name="Path 2176" class="eede9227-99d1-4646-b9c9-00443515453c" d="M58.64,10.32C43,7.17,28.42,3.83,15.44.61L2.25,55.21.55,60.56l68.31,97.95a2.69,2.69,0,0,0,0-.85,6.69,6.69,0,0,1-.31-1.34c0-.54.27-.93.29-1.35,0-.57-.32-.89-.29-1.37s.41-.69.64-1.1a3.84,3.84,0,0,0,.29-3c-1.59-.61.5-3.39.58-4.2.1-1-.37-1.6.12-2.53a14.47,14.47,0,0,0,1.14-1.74c.57-1.7-1-3.62-.32-5.16.37-.83,1.28-.63,1.89-.29a4.13,4.13,0,0,0,2.45.78c1.16.05,1.12.48,1.79,1.28.87,1.06.8.45,1.46-.22s1.34-.22,2-.58.46-.7.4-1.11a.35.35,0,0,1,0,.11v-.47c0,.12,0,.24,0,.36a4.87,4.87,0,0,0,.17-1v1.43l2.72-16.6L100.59,17.71C85.94,15.49,71.88,13,58.64,10.31M80.92,135.39a.88.88,0,0,1,0-.28,2.72,2.72,0,0,0,0,.28"/><path id="b45881bb-719f-4d05-8ac0-457305ca4d9b" data-name="Path 2177" class="aa0e05e6-f1b4-4cab-9515-494956978c08" d="M58.64,10.32C43,7.17,28.42,3.83,15.44.61L2.25,55.21.55,60.56l68.31,97.95a2.69,2.69,0,0,0,0-.85,6.69,6.69,0,0,1-.31-1.34c0-.54.27-.93.29-1.35,0-.57-.32-.89-.29-1.37s.41-.69.64-1.1a3.84,3.84,0,0,0,.29-3c-1.59-.61.5-3.39.58-4.2.1-1-.37-1.6.12-2.53a14.47,14.47,0,0,0,1.14-1.74c.57-1.7-1-3.62-.32-5.16.37-.83,1.28-.63,1.89-.29a4.13,4.13,0,0,0,2.45.78c1.16.05,1.12.48,1.79,1.28.87,1.06.8.45,1.46-.22s1.34-.22,2-.58.46-.7.4-1.11a.35.35,0,0,1,0,.11v-.47c0,.12,0,.24,0,.36a4.87,4.87,0,0,0,.17-1v1.43l2.72-16.6L100.59,17.71C85.94,15.5,71.88,13,58.64,10.32ZM80.92,135.39a.88.88,0,0,1,0-.28A2.72,2.72,0,0,0,80.92,135.39Z"/></g></g></svg>