<svg xmlns="http://www.w3.org/2000/svg" viewBox="0 0 131.95 62.69"><defs><style>.a55b2d3d-99cf-43d6-917f-7915c7545376{fill:#6caad2;}.ae80c8dd-66b5-4152-b886-8405fa05a243,.ea01d8c3-422c-4389-a28d-beaa3f5f869f{fill:none;stroke-miterlimit:10;}.ea01d8c3-422c-4389-a28d-beaa3f5f869f{stroke:#b5cfe4;}.f1289755-3515-43f1-890b-47724cc555df{fill:#072f4c;}.ae80c8dd-66b5-4152-b886-8405fa05a243{stroke:#89bcdc;}</style></defs><g id="ae2643f3-fc27-4bbe-8914-6cc74321d1d0" data-name="Layer 2"><g id="b5d21fc6-115e-49c6-8f5e-cb5c0a39d623" data-name="Layer 1"><path id="b020f46f-977d-4b85-b067-3e4c1c3f2bc6" data-name="Path 2148" class="a55b2d3d-99cf-43d6-917f-7915c7545376" d="M48.62,13.73l-8.9,1.44-8.25,1.2c5.77-.87,11.52-1.75,17.16-2.64"/><path id="e4559edc-0011-4242-b95b-dc525c21b148" data-name="Path 2149" class="ea01d8c3-422c-4389-a28d-beaa3f5f869f" d="M48.62,13.73l-8.9,1.44-8.25,1.2C37.24,15.5,43,14.62,48.62,13.73Z"/><path id="af601b4b-5156-4642-8ac8-cc8fb49e027f" data-name="Path 2170" class="f1289755-3515-43f1-890b-47724cc555df" d="M131.45,15.93c0,2-.12,2.33-1.52,3.5-1.75,1.45-1.8,5.75-4.82,5.56.06-.39.1-1.89-.69-1.52-.52.24-.28,1.43-.31,1.9-1.22.09-.68-1.94-1.94-1.92s-.62,1.39-1.46,1.95c.61.72,1.59,1.78,1.32,2.8-.22.83-2.36,1.79-.86,2.78.85.57,3.52-.8,4.6-.82,2,0,3.55.43,3.43,2.83-.1,2.18-2,4.52-3.14,6.29-1.24,2-2.63,2.2-4.82,2.56-1.47.23-3.71,1.08-5.19.66l-.14,0c-.9.6-2.1,1-2.8,1.54a22.9,22.9,0,0,0-3.27,2.62c-2.26,2.49-3.13,5.88-4.56,8.86a37,37,0,0,1-2.67,4.33c-.14-1.56.28-3.09.12-4.63-1.17.24-.9,1.37-1.29,2.22a3.44,3.44,0,0,1-2,1.88A12,12,0,0,0,95.17,62h0L73.83,46.88v.39l-17.4,2.92-3-4.09c-.56,0-1.13.2-1.7.2-.75-.2-.56-1.36-.94-2.14l-14.38,1a3.54,3.54,0,0,1-2.45,1,11.75,11.75,0,0,0-2.65.2c-1,.2-1.51,1.17-2.27,1.55-1,.59-1.7,0-2.65.39-.38.2-.75.58-1.13.58a2.76,2.76,0,0,1-1.33.2,5.75,5.75,0,0,0-2.45,1.17,6.65,6.65,0,0,0-.88.88c-5.24,1.23-12.15,2.4-20,3.5,0-.35,0-.71,0-1.08a11.56,11.56,0,0,1,0-1.25,1.69,1.69,0,0,1,.07-.38h0a1,1,0,0,1,.16-.31c.05-.08.1-.16.16-.24a1.35,1.35,0,0,0,.5-1c0-.48-.19-.82-.16-1.2l0-.17,0-.09c.38-1.27,1.52-1.36,2.27-2.14l.14-.13.13-.14a15.63,15.63,0,0,0,1.34-2.26c.07-.14.15-.27.22-.4a10.75,10.75,0,0,1,.73-1.16,5.45,5.45,0,0,1,1.23-1.26,3.39,3.39,0,0,1,1.32-.68,5.55,5.55,0,0,0,1-.09l.4-.07.21,0h0a3.29,3.29,0,0,1,1.42-.29,2.2,2.2,0,0,0,1.51-.49,1.55,1.55,0,0,1,.24-.19l.2-.11.21-.11.1-.07,0,0a5.71,5.71,0,0,0,.35-.64l.11-.16a4.92,4.92,0,0,1,1.12-1.11l.3-.21.31-.18.34-.16h0l.35-.14c.47-.19,1-.33,1.44-.48a2.36,2.36,0,0,0,1-.64,3.17,3.17,0,0,0,.4-.49c.08-.11.15-.24.22-.36s.12-.25.17-.38a3.58,3.58,0,0,0,.16-.56A15.13,15.13,0,0,1,21,31.4c.09-.25.18-.5.28-.74a5.24,5.24,0,0,1,.45-.76l.12-.15a3.47,3.47,0,0,1,.25-.29,2.94,2.94,0,0,1,1.16-.84.61.61,0,0,1,.44,0l.08.06a.9.9,0,0,1,.15.64,1.37,1.37,0,0,1,0,.19s0,.07,0,.11,0,.2-.05.3a.36.36,0,0,1,0,.1c0,.06,0,.13,0,.18a.44.44,0,0,1,0,.1c0,.08,0,.16,0,.22s0,.08,0,.12a2.44,2.44,0,0,1,0,.26c0,.14,0,.28,0,.43s0,.12,0,.18a1.07,1.07,0,0,0,.09.34.65.65,0,0,0,.1.15,1,1,0,0,0,1,.16l.26-.08.13-.05.23-.13.35-.16.35-.2a7.55,7.55,0,0,0,.71-.51,7.21,7.21,0,0,0,1-1.36,4,4,0,0,1,1.44-1.4c.47-.28,1.48-.6,1.8-1,.45-.62.07-1.11.83-1.56L30.7,16.48l.69-.11h.07l8.25-1.2,8.9-1.44,1.16-.18c6.89-1.08,13.61-2.18,20-3.24l.71-.12h.06C79,8.77,87,7.42,94.12,6.17l.35-.06L125.25.59h.07l.22,0,.09,0h0c0,.25,0,.5,0,.74l.31.06c-.15,1.55-.12,2.95,1.51,3.65a9,9,0,0,0,.26-2.48c1.24-.11,1,2.08,1.29,2.89s.84,1.32,1.12,2.1c-1.16.2-3.83-1.95-4.18-.38-.13.58-1.82-1.38-1.9-1.38-1.29,0-1.07,2.8-1.12,3.52-1.23.64-1.51-.16-2.32-.75a8.06,8.06,0,0,0-2.52-1.13c-1,1.69,4,3.33-.08,4-1,.16-2.15.38-2.8-.35s-.08-2.22-1.66-2.5a1.49,1.49,0,0,0,.12,1.7l-.52.06c.16,1-1.06,2.81-.65,3.58.84,1.64,2.66-.66,3.5-1,1.31-.52,2.74.14,4.13-.16a22.54,22.54,0,0,0,3.9-1c1.84-.77,5.52-1.74,6.8.37.68,1.11.58,2.63.58,3.88"/><path id="a5339f83-a9a7-4a72-ae21-4e82a1cdd418" data-name="Path 2171" class="ae80c8dd-66b5-4152-b886-8405fa05a243" d="M131.45,15.93c0,2-.12,2.33-1.52,3.5-1.75,1.45-1.8,5.75-4.82,5.56.06-.39.1-1.89-.69-1.52-.52.24-.28,1.43-.31,1.9-1.22.09-.68-1.94-1.94-1.92s-.62,1.39-1.46,1.95c.61.72,1.59,1.78,1.32,2.8-.22.83-2.36,1.79-.86,2.78.85.57,3.52-.8,4.6-.82,2,0,3.55.43,3.43,2.83-.1,2.18-2,4.52-3.14,6.29-1.24,2-2.63,2.2-4.82,2.56-1.47.23-3.71,1.08-5.19.66l-.14,0c-.9.6-2.1,1-2.8,1.54a22.9,22.9,0,0,0-3.27,2.62c-2.26,2.49-3.13,5.88-4.56,8.86a37,37,0,0,1-2.67,4.33c-.14-1.56.28-3.09.12-4.63-1.17.24-.9,1.37-1.29,2.22a3.44,3.44,0,0,1-2,1.88A12,12,0,0,0,95.17,62h0L73.83,46.88v.39l-17.4,2.92-3-4.09c-.56,0-1.13.2-1.7.2-.75-.2-.56-1.36-.94-2.14l-14.38,1a3.54,3.54,0,0,1-2.45,1,11.75,11.75,0,0,0-2.65.2c-1,.2-1.51,1.17-2.27,1.55-1,.59-1.7,0-2.65.39-.38.2-.75.58-1.13.58a2.76,2.76,0,0,1-1.33.2,5.75,5.75,0,0,0-2.45,1.17,6.65,6.65,0,0,0-.88.88c-5.24,1.23-12.15,2.4-20,3.5,0-.35,0-.71,0-1.08a11.56,11.56,0,0,1,0-1.25,1.69,1.69,0,0,1,.07-.38h0a1,1,0,0,1,.16-.31c.05-.08.1-.16.16-.24a1.35,1.35,0,0,0,.5-1c0-.48-.19-.82-.16-1.2l0-.17,0-.09c.38-1.27,1.52-1.36,2.27-2.14l.14-.13.13-.14a15.63,15.63,0,0,0,1.34-2.26c.07-.14.15-.27.22-.4a10.75,10.75,0,0,1,.73-1.16,5.45,5.45,0,0,1,1.23-1.26,3.39,3.39,0,0,1,1.32-.68,5.55,5.55,0,0,0,1-.09l.4-.07.21,0h0a3.29,3.29,0,0,1,1.42-.29,2.2,2.2,0,0,0,1.51-.49,1.55,1.55,0,0,1,.24-.19l.2-.11.21-.11.1-.07,0,0a5.71,5.71,0,0,0,.35-.64l.11-.16a4.92,4.92,0,0,1,1.12-1.11l.3-.21.31-.18.34-.16h0l.35-.14c.47-.19,1-.33,1.44-.48a2.36,2.36,0,0,0,1-.64,3.17,3.17,0,0,0,.4-.49c.08-.11.15-.24.22-.36s.12-.25.17-.38a3.58,3.58,0,0,0,.16-.56A15.13,15.13,0,0,1,21,31.4c.09-.25.18-.5.28-.74a5.24,5.24,0,0,1,.45-.76l.12-.15a3.47,3.47,0,0,1,.25-.29,2.94,2.94,0,0,1,1.16-.84.61.61,0,0,1,.44,0l.08.06a.9.9,0,0,1,.15.64,1.37,1.37,0,0,1,0,.19s0,.07,0,.11,0,.2-.05.3a.36.36,0,0,1,0,.1c0,.06,0,.13,0,.18a.44.44,0,0,1,0,.1c0,.08,0,.16,0,.22s0,.08,0,.12a2.44,2.44,0,0,1,0,.26c0,.14,0,.28,0,.43s0,.12,0,.18a1.07,1.07,0,0,0,.09.34.65.65,0,0,0,.1.15,1,1,0,0,0,1,.16l.26-.08.13-.05.23-.13.35-.16.35-.2a7.55,7.55,0,0,0,.71-.51,7.21,7.21,0,0,0,1-1.36,4,4,0,0,1,1.44-1.4c.47-.28,1.48-.6,1.8-1,.45-.62.07-1.11.83-1.56L30.7,16.48l.69-.11h.07l8.25-1.2,8.9-1.44,1.16-.18c6.89-1.08,13.61-2.18,20-3.24l.71-.12h.06C79,8.77,87,7.42,94.12,6.17l.35-.06L125.25.59h.07l.22,0,.09,0h0c0,.25,0,.5,0,.74l.31.06c-.15,1.55-.12,2.95,1.51,3.65a9,9,0,0,0,.26-2.48c1.24-.11,1,2.08,1.29,2.89s.84,1.32,1.12,2.1c-1.16.2-3.83-1.95-4.18-.38-.13.58-1.82-1.38-1.9-1.38-1.29,0-1.07,2.8-1.12,3.52-1.23.64-1.51-.16-2.32-.75a8.06,8.06,0,0,0-2.52-1.13c-1,1.69,4,3.33-.08,4-1,.16-2.15.38-2.8-.35s-.08-2.22-1.66-2.5a1.49,1.49,0,0,0,.12,1.7l-.52.06c.16,1-1.06,2.81-.65,3.58.84,1.64,2.66-.66,3.5-1,1.31-.52,2.74.14,4.13-.16a22.54,22.54,0,0,0,3.9-1c1.84-.77,5.52-1.74,6.8.37C131.55,13.17,131.45,14.68,131.45,15.93Z"/></g></g></svg>