<svg xmlns="http://www.w3.org/2000/svg" viewBox="0 0 78.23 62.79"><defs><style>.aaa2ed6f-bec0-4446-b06c-f8a878328936{fill:#072f4c;}.ad11141f-f7ac-448f-8e1b-67539cc815d2{fill:none;stroke:#89bcdc;stroke-miterlimit:10;}</style></defs><g id="a7801dbb-7f33-4a79-b2a5-980765e3c85a" data-name="Layer 2"><g id="a252bfa9-43d6-47d0-a406-78acda73290f" data-name="Layer 1"><path id="e2e261c1-b447-4165-b429-53dcc5e10bc6" data-name="Path 2158" class="aaa2ed6f-bec0-4446-b06c-f8a878328936" d="M77.43,18.4A15,15,0,0,0,74,22.84c-.79,1.82-1.47,3.61-2.29,5.43s-1.46,5.27-3.67,6.17a7.87,7.87,0,0,0-.79-1.72c-2.14,1-.27,4.28,0,5.79-2.15.12-3.4-.59-4.07,2-.47,1.81-.78,3.69-2.9,4.58-.52-.77-1.23-1.65-2.28-1.36-1.47.4-.65,1.09-.63,2.14,0,1.6-2,3.12-3.87,3.1a5.45,5.45,0,0,1-.22-1.27c-.27.93-.46,2.4-1.19,3-.88.74-2.27-.06-2.76,1.18s1.59,1.84.8,3-2.56-.2-2.75-1.24c-1.43,1,1.34,2.65,1,4-.9.3-.5,1.41-.72,2.18a5.3,5.3,0,0,1-1.2,2.11,15.07,15.07,0,0,0-1.83-1.64,1.87,1.87,0,0,1-.94-.77A5.77,5.77,0,0,0,41,57.89c-1.14-.39-.76-1.17-.94-2.14a3.78,3.78,0,0,0-.38-1.36c-.38-.39-.95-.59-1.33-1a3.15,3.15,0,0,0-.75-1.36c-.19-.58-.76-.58-1.14-1-.57-.58-.57-1.55-1-2.33-.18-.39-.56-.78-.56-1.17-.19-.58-.19-1.16-.38-1.55-.38-.78-.76-2.14-1.33-2.53a12.61,12.61,0,0,1-2.64-1.75A9.23,9.23,0,0,0,28.3,40.2c-2.78-1.15-3.46-3.23-5.63-4.91-1.24-.95-2.35-1.9-3.59-2.73-1.08-.71-1.77-2-2.89-2.67C14,28.47,13.85,29,13.06,26.4c-.59-2-2.22-2.47-3.11-4.29a6.21,6.21,0,0,0-1.89-2.53c-.56-.19-.75.2-1.32-.39A3.94,3.94,0,0,0,5.6,17.83c-.94-.39-1.7,0-2.64-.2-1.52-.39-1.89-2.33-2.27-3.5a2.47,2.47,0,0,1,.38-2.53c.18-.58.18-1,.37-1.75a7.93,7.93,0,0,1,1.4-2.42,7.31,7.31,0,0,1,.88-.88A5.78,5.78,0,0,1,6.18,5.38,2.71,2.71,0,0,0,7.5,5.19c.38,0,.76-.39,1.14-.59.94-.38,1.7.2,2.64-.38.76-.39,1.33-1.37,2.27-1.56a11.79,11.79,0,0,1,2.65-.19,3.59,3.59,0,0,0,2.46-1L33,.52c.38.78.19,2,.95,2.14.57,0,1.13-.19,1.7-.19l3,4.08L56.1,3.63V3.24Z"/><path id="b5bc80f1-7da6-4101-9b1d-f9d8183fda03" data-name="Path 2159" class="ad11141f-f7ac-448f-8e1b-67539cc815d2" d="M77.43,18.4A15,15,0,0,0,74,22.84c-.79,1.82-1.47,3.61-2.29,5.43s-1.46,5.27-3.67,6.17a7.87,7.87,0,0,0-.79-1.72c-2.14,1-.27,4.28,0,5.79-2.15.12-3.4-.59-4.07,2-.47,1.81-.78,3.69-2.9,4.58-.52-.77-1.23-1.65-2.28-1.36-1.47.4-.65,1.09-.63,2.14,0,1.6-2,3.12-3.87,3.1a5.45,5.45,0,0,1-.22-1.27c-.27.93-.46,2.4-1.19,3-.88.74-2.27-.06-2.76,1.18s1.59,1.84.8,3-2.56-.2-2.75-1.24c-1.43,1,1.34,2.65,1,4-.9.3-.5,1.41-.72,2.18a5.3,5.3,0,0,1-1.2,2.11,15.07,15.07,0,0,0-1.83-1.64,1.87,1.87,0,0,1-.94-.77A5.77,5.77,0,0,0,41,57.89c-1.14-.39-.76-1.17-.94-2.14a3.78,3.78,0,0,0-.38-1.36c-.38-.39-.95-.59-1.33-1a3.15,3.15,0,0,0-.75-1.36c-.19-.58-.76-.58-1.14-1-.57-.58-.57-1.55-1-2.33-.18-.39-.56-.78-.56-1.17-.19-.58-.19-1.16-.38-1.55-.38-.78-.76-2.14-1.33-2.53a12.61,12.61,0,0,1-2.64-1.75A9.23,9.23,0,0,0,28.3,40.2c-2.78-1.15-3.46-3.23-5.63-4.91-1.24-.95-2.35-1.9-3.59-2.73-1.08-.71-1.77-2-2.89-2.67C14,28.47,13.85,29,13.06,26.4c-.59-2-2.22-2.47-3.11-4.29a6.21,6.21,0,0,0-1.89-2.53c-.56-.19-.75.2-1.32-.39A3.94,3.94,0,0,0,5.6,17.83c-.94-.39-1.7,0-2.64-.2-1.52-.39-1.89-2.33-2.27-3.5a2.47,2.47,0,0,1,.38-2.53c.18-.58.18-1,.37-1.75a7.93,7.93,0,0,1,1.4-2.42,7.31,7.31,0,0,1,.88-.88A5.78,5.78,0,0,1,6.18,5.38,2.71,2.71,0,0,0,7.5,5.19c.38,0,.76-.39,1.14-.59.94-.38,1.7.2,2.64-.38.76-.39,1.33-1.37,2.27-1.56a11.79,11.79,0,0,1,2.65-.19,3.59,3.59,0,0,0,2.46-1L33,.52c.38.78.19,2,.95,2.14.57,0,1.13-.19,1.7-.19l3,4.08L56.1,3.63V3.24Z"/></g></g></svg>