<svg xmlns="http://www.w3.org/2000/svg" viewBox="0 0 128.46 48.18"><defs><style>.fb1d3855-f3f9-4da4-9bc3-2d20cd6dc199{fill:#072f4c;}.bf2bce3f-aadd-463c-bf90-87a7df55bc03{fill:none;stroke:#89bcdc;stroke-miterlimit:10;}</style></defs><g id="a65b19cd-5bf3-443c-812b-101fdc61021a" data-name="Layer 2"><g id="bf89b50f-18e3-4660-8fe0-073dcb768629" data-name="Layer 1"><path id="b0e99726-2353-4e76-8433-584bace499ad" data-name="Path 2168" class="fb1d3855-f3f9-4da4-9bc3-2d20cd6dc199" d="M127.92,9.82c-.77.45-.38.94-.83,1.56-.32.44-1.33.76-1.8,1a3.87,3.87,0,0,0-1.44,1.4,7.15,7.15,0,0,1-1,1.35,5.11,5.11,0,0,1-.71.51c-.12.08-.24.14-.35.2l-.36.17-.23.12-.12,0a1.34,1.34,0,0,1-.26.09,1,1,0,0,1-1-.17.56.56,0,0,1-.1-.15,1.3,1.3,0,0,1-.08-.34,1.09,1.09,0,0,1,0-.18c0-.14,0-.29,0-.43s0-.18,0-.26v-.11c0-.07,0-.15,0-.23s0-.06,0-.09l0-.19s0-.06,0-.1,0-.2.05-.3,0-.07,0-.11a1.15,1.15,0,0,0,0-.19.83.83,0,0,0-.15-.63.13.13,0,0,0-.07-.06.56.56,0,0,0-.44,0,3,3,0,0,0-1.17.84c-.08.1-.17.19-.25.3l-.11.15a5.8,5.8,0,0,0-.46.75l-.28.75a15.09,15.09,0,0,0-.66,2.27,5.15,5.15,0,0,1-.16.56,3.26,3.26,0,0,1-.18.38,3.35,3.35,0,0,1-.21.36,3.72,3.72,0,0,1-.4.49,2.4,2.4,0,0,1-1,.64c-.47.14-1,.29-1.44.47a3.49,3.49,0,0,0-.34.15h0l-.34.16-.32.18a2.73,2.73,0,0,0-.3.21,4.68,4.68,0,0,0-1.11,1.11l-.12.15a5.84,5.84,0,0,1-.35.65s0,0,0,0l-.1.07-.21.12-.2.11a.88.88,0,0,0-.24.19,2.2,2.2,0,0,1-1.52.48,3.64,3.64,0,0,0-1.42.29l-.21,0-.4.07a5.55,5.55,0,0,1-1,.09,3.54,3.54,0,0,0-1.32.68A5.66,5.66,0,0,0,102,26.74a12.57,12.57,0,0,0-.73,1.16l-.21.4a16.9,16.9,0,0,1-1.34,2.25l-.14.14-.13.14c-.76.77-1.89.87-2.27,2.13,0,0,0,.06,0,.1a.47.47,0,0,0,0,.17c0,.37.15.72.15,1.2a1.39,1.39,0,0,1-.49,1,1.31,1.31,0,0,0-.17.24.92.92,0,0,0-.16.31h0a2.53,2.53,0,0,0-.07.38c0,.45,0,.95,0,1.25s0,.73,0,1.08h0c-6.4.9-13.42,1.76-20.66,2.56-13.75,1.51-28.3,2.82-40.94,3.85C18,46.5,4.58,47.39,1.05,47.61c.06-.07.12-.16.19-.23.7-.85,1.73-1,2.46-1.75s.58-1.52.47-2.62a23,23,0,0,1-.25-3c0-1.28.52-1.35,1.25-2.23s.39-2.1.58-3.29A4.84,4.84,0,0,1,7,32.12a14.16,14.16,0,0,0,2.94-6,6.2,6.2,0,0,0,.07-1,38.41,38.41,0,0,1,.13-6,5.9,5.9,0,0,1,1.1-2.35,3,3,0,0,0,.2-.49.84.84,0,0,0,0-.17l.09-.35c5.45,0,23.39-.65,23.39-.65l.26-5.06c1.85,0,3.82,0,5.9-.07l1.57,0,1.66-.06,1.57-.07c1.67-.08,3.4-.18,5.18-.29l1.64-.11,1.1-.07,1.59-.12c1.61-.12,3.26-.25,5-.4l1.58-.13,4.29-.39,1.64-.16.28,0,2.8-.28.19,0L73,7.64Q78.9,7,85.13,6.27l1.2-.14,2.07-.25,1.33-.16.8-.1,2.63-.33,3.6-.47h0c4.89-.63,20.64-2.9,30.52-4.32l-.7.1Z"/><path id="a7e113f0-8763-4111-bf3a-5648d6467606" data-name="Path 2169" class="bf2bce3f-aadd-463c-bf90-87a7df55bc03" d="M127.92,9.82c-.77.45-.38.94-.83,1.56-.32.44-1.33.76-1.8,1a3.87,3.87,0,0,0-1.44,1.4,7.15,7.15,0,0,1-1,1.35,5.11,5.11,0,0,1-.71.51c-.12.08-.24.14-.35.2l-.36.17-.23.12-.12,0a1.34,1.34,0,0,1-.26.09,1,1,0,0,1-1-.17.56.56,0,0,1-.1-.15,1.3,1.3,0,0,1-.08-.34,1.09,1.09,0,0,1,0-.18c0-.14,0-.29,0-.43s0-.18,0-.26v-.11c0-.07,0-.15,0-.23s0-.06,0-.09l0-.19s0-.06,0-.1,0-.2.05-.3,0-.07,0-.11a1.15,1.15,0,0,0,0-.19.83.83,0,0,0-.15-.63.13.13,0,0,0-.07-.06.56.56,0,0,0-.44,0,3,3,0,0,0-1.17.84c-.08.1-.17.19-.25.3l-.11.15a5.8,5.8,0,0,0-.46.75l-.28.75a15.09,15.09,0,0,0-.66,2.27,5.15,5.15,0,0,1-.16.56,3.26,3.26,0,0,1-.18.38,3.35,3.35,0,0,1-.21.36,3.72,3.72,0,0,1-.4.49,2.4,2.4,0,0,1-1,.64c-.47.14-1,.29-1.44.47a3.49,3.49,0,0,0-.34.15h0l-.34.16-.32.18a2.73,2.73,0,0,0-.3.21,4.68,4.68,0,0,0-1.11,1.11l-.12.15a5.84,5.84,0,0,1-.35.65s0,0,0,0l-.1.07-.21.12-.2.11a.88.88,0,0,0-.24.19,2.2,2.2,0,0,1-1.52.48,3.64,3.64,0,0,0-1.42.29l-.21,0-.4.07a5.55,5.55,0,0,1-1,.09,3.54,3.54,0,0,0-1.32.68A5.66,5.66,0,0,0,102,26.74a12.57,12.57,0,0,0-.73,1.16l-.21.4a16.9,16.9,0,0,1-1.34,2.25l-.14.14-.13.14c-.76.77-1.89.87-2.27,2.13,0,0,0,.06,0,.1a.47.47,0,0,0,0,.17c0,.37.15.72.15,1.2a1.39,1.39,0,0,1-.49,1,1.31,1.31,0,0,0-.17.24.92.92,0,0,0-.16.31h0a2.53,2.53,0,0,0-.07.38c0,.45,0,.95,0,1.25s0,.73,0,1.08h0c-6.4.9-13.42,1.76-20.66,2.56-13.75,1.51-28.3,2.82-40.94,3.85C18,46.5,4.58,47.39,1.05,47.61c.06-.07.12-.16.19-.23.7-.85,1.73-1,2.46-1.75s.58-1.52.47-2.62a23,23,0,0,1-.25-3c0-1.28.52-1.35,1.25-2.23s.39-2.1.58-3.29A4.84,4.84,0,0,1,7,32.12a14.16,14.16,0,0,0,2.94-6,6.2,6.2,0,0,0,.07-1,38.41,38.41,0,0,1,.13-6,5.9,5.9,0,0,1,1.1-2.35,3,3,0,0,0,.2-.49.84.84,0,0,0,0-.17l.09-.35c5.45,0,23.39-.65,23.39-.65l.26-5.06c1.85,0,3.82,0,5.9-.07l1.57,0,1.66-.06,1.57-.07c1.67-.08,3.4-.18,5.18-.29l1.64-.11,1.1-.07,1.59-.12c1.61-.12,3.26-.25,5-.4l1.58-.13,4.29-.39,1.64-.16.28,0,2.8-.28.19,0L73,7.64Q78.9,7,85.13,6.27l1.2-.14,2.07-.25,1.33-.16.8-.1,2.63-.33,3.6-.47h0c4.89-.63,20.64-2.9,30.52-4.32l-.7.1Z"/></g></g></svg>