<svg xmlns="http://www.w3.org/2000/svg" viewBox="0 0 219.37 218.88"><defs><style>.f262c079-4eaa-462c-a412-8c3ecb2871f0{fill:#072f4c;}.a13f30a3-e631-464a-a101-6bf2c848733c{fill:none;stroke:#89bcdc;stroke-miterlimit:10;}</style></defs><g id="f051d94b-aac7-4b7c-aad4-d55099592aa2" data-name="Layer 2"><g id="e02300cd-4865-4d14-be4f-f67c882e8ac4" data-name="Layer 1"><path id="f431c207-3696-4740-b39e-355c983ddbb1" data-name="Path 2178" class="f262c079-4eaa-462c-a412-8c3ecb2871f0" d="M218,114.79a7.6,7.6,0,0,1-.38-1,3.38,3.38,0,0,1,.06-1.1,9.74,9.74,0,0,0,.32-3.31,5.58,5.58,0,0,0-.89-2c-.37-.65-.94-1.1-1.32-1.75-.19-.32-.38-.71-.57-1a7.59,7.59,0,0,1-.62-.84A7.76,7.76,0,0,1,214,102c-.12-.52,0-1.23-.31-1.62-.6-.75-1-.91-1.12-2s-.29-.82-.88-1.44a5,5,0,0,1-1.53-3.17l-.58-18.64-.43-13.76c-1-.43-1.93.37-2.84,1a3.38,3.38,0,0,1-1.38.4c-.58.11-1.1.8-1.7.6s-.7-.76-1.06-1.2l-.3-.35-.52-.56A5.34,5.34,0,0,0,200,60a2.58,2.58,0,0,0-1.64-.25c-1.13,0-1.41-1.29-2.4-1.54-.55-.14-1,.21-1.45.13s-.93-.64-1.34-.89a8.6,8.6,0,0,0-2.63-1.06,3.5,3.5,0,0,0-1.7.09c-.65.21-1,.81-1.64,1-1.11.25-1.68-1-2.83-.86-1.86.17-3.79.64-5.62,1a16.64,16.64,0,0,1-3.59.37,18.78,18.78,0,0,0-3.67.25,3.68,3.68,0,0,1-3.2-.56,3.9,3.9,0,0,0-3.22-.27c-.57.14-1.14.62-1.75.6-.79,0-.71-.83-1.58-.74a4.79,4.79,0,0,1-1.77,0c-.51-.13-.88-.4-1.39-.31-1.08.2-1.62,1.36-2.7,1.62-.88.21-2.27.3-2.85-.53A10.48,10.48,0,0,0,152,56.77c-.82-.92-1.09-1.79-2.32-.64-.64.61-1.83,2.06-2.85,1.69s-1.46-2.17-2.1-2.94c-.4-.48-.71-1.43-1.29-1.7s-.83.14-1.34.37-.74,0-1.33-.3-1.12.1-1.62-.12c-.67.3-1.69-.42-2.16-.9-.29-.3-.45-.69-.88-.83s-.7.15-1.15.12c-.86-.6-2,0-3-.33a13.94,13.94,0,0,0-1.58-.21c-.65-.12-1.22-.26-1.87-.33a1.41,1.41,0,0,1-1.3-.88c-.56-1.15-1-2.74-2.06-3.49-1.28-.87-2.38,0-3.72-.15-1.1-.1-1.58-1.22-2.78-1-.63.1-.94.39-1.57.08s-.45-.85-.88-1.31-.74-.37-1-1a2.55,2.55,0,0,0-2.26-1.56.62.62,0,0,1-.38-.06c-.18-.12-.08-.3-.18-.43l1.19-38.49C111.11,2.21,76,.86,67,.52l-5,90.19L.68,87l0,.1a3.17,3.17,0,0,0,.19.42s0,.1,0,.13.07.13.1.16a.63.63,0,0,0,.16.26c.09.06.22.1.31.16a2.09,2.09,0,0,1,.29.23c.19.13.5.26.44.55l-.06.19,1,.11a9.56,9.56,0,0,0,.47,1.15,4.36,4.36,0,0,0,1.65,1.65c.9.57.59,1.24,1,2.09C6.91,95.58,8.8,96,8.91,97.71A1.66,1.66,0,0,0,10,99.37a7.84,7.84,0,0,1,2.25,1.84,21.06,21.06,0,0,1,2.51,3.62,4,4,0,0,0,1.57,1.3,2.67,2.67,0,0,1,1.38,2,2.92,2.92,0,0,0,.89,2c.57.45,1.53.83,1.92,1.44s.61,1.47,1.08,2.12,1.22.56,2,.4c1.24-.27,1.21,1,1.83,1.66.48.49,1.3.63,1.62,1.29s0,2,0,2.78a9,9,0,0,0,.14,2.83c.58,1.79,1.94,3.25,2.51,5.07.66,2.09.84,4.36,1.89,6.31.89,1.63,2,3.16,3,4.74a22.94,22.94,0,0,0,4.07,4.45,14.59,14.59,0,0,0,2.6,2.1,19.31,19.31,0,0,0,2.9,1.21,8.89,8.89,0,0,1,2.84,1.69c.75.69,1.33,1.53,2.07,2.21A7.1,7.1,0,0,0,55.55,152c2-.69,2.12-3.4,3.25-5,.63-.9,1.48-1.6,2.16-2.45a8.82,8.82,0,0,0,1.4-2.79A8.48,8.48,0,0,1,65.77,137a10.87,10.87,0,0,1,5.13-1.85.71.71,0,0,1,.55-.23c.47.1.58.91,1.09,1.09s1.16-.23,1.74-.2a8.27,8.27,0,0,0,1.65.2c.5-.08,1-.38,1.47-.11s.64.71,1.13.89A2.1,2.1,0,0,0,80,136.7c.56-.19,1.23-.56,1.83-.36s.7.62,1.16.78,1,0,1.48.22a2.57,2.57,0,0,1,1,1c.64,1,.59,2.43,2,2.58a3.33,3.33,0,0,1,2.83,1.52,8.6,8.6,0,0,0,2,2.38c.38.28.83.45,1.07.89a11.8,11.8,0,0,1,.4,1.44A3.12,3.12,0,0,0,95,148.62c.53.3,1.19.27,1.63.72s.4,1.29.46,2,1.1.65,1.25,1.62a1.68,1.68,0,0,0,.42.95,2.12,2.12,0,0,1,.33,1,9.41,9.41,0,0,0,.51,2.34c.4,1.11,1.45,1.87,2.1,2.82a5.86,5.86,0,0,1,.83,2.35c.25.86.54,1.7.87,2.53s.93,1.37,1.44,2.19a4.17,4.17,0,0,1,.3,1.1c.18.57.68.87,1,1.29.64.73,1.63,1,2.18,1.87s0,1.34.78,2c.28.22.59.29.81.61a5.08,5.08,0,0,1,.39,1.07c.27.72,1,1.17,1.32,1.87a12.59,12.59,0,0,1,.82,2.17,2.56,2.56,0,0,0,1.4,1.68,6.75,6.75,0,0,1,1.91,1.49,15.3,15.3,0,0,1,1.25,2.1,9.87,9.87,0,0,1,1.12,2,12.92,12.92,0,0,1,.23,2.4c0,.6-.08,1.22,0,1.82a6.61,6.61,0,0,1,.24,1.09c0,1.07-.9,1.4.06,2.3.51.48.2,1,.56,1.56s.91.78,1.25,1.27a3.71,3.71,0,0,1,.38,1.7c.11.7.63.82,1.16,1.19a3.79,3.79,0,0,1,1.37,3.59c0,.54-.26,1-.33,1.56a2.67,2.67,0,0,0,.59,1.77c0-.07.19-.14.25-.24a7.73,7.73,0,0,1,1.37.56c.41.28.76.69,1.16,1s.93.52,1.38.81.63.58,1,.82c1,.67,2.35,1,3.1,2,.33.42.53.69,1.13.52a10.07,10.07,0,0,0,1.21-.53,3.87,3.87,0,0,1,1.28-.61,4.19,4.19,0,0,1,1.69,0,2.08,2.08,0,0,1,1.18.54c.31.33.43.62.86.82s.64.22.87.69a2.69,2.69,0,0,0,.62,1.09,5.87,5.87,0,0,0,2.36.66,8.42,8.42,0,0,1,1.23,0c.36.09.61.4.95.55,1.36.59,2.89-.69,4,.64.73.87,1.5.87,2.57,1.14a2.16,2.16,0,0,1,1,.54c.28.27.61.71,1,.81s.64-.2,1-.24.73.26,1,.14a2.86,2.86,0,0,0,.91-1.49,3.27,3.27,0,0,0-.44-1.58,21.28,21.28,0,0,0-1.34-2.86,27.64,27.64,0,0,0-1.82-2.1c-.87-1.21-.3-1.65,0-2.95a11.42,11.42,0,0,0-.19-7.1c-.32-.93-2.79-5.93-.08-5.18.9,3.73.51,7.68,1.67,11.34.32,1,2.76,7.77,3.91,6.84,1.66-1.34-2-8.74-2.34-10.4-1.72-7.81,1.39-14.57,3.58-21.78-2.71-.21-2.58,1.27-3.42,3.44-.55,1.4-.7,3.17-1.6,4.38-.37.5-1.45,2.87-2.26,1.78-.3-.41,0-.95.2-1.37a16.58,16.58,0,0,0,.66-2.18c.49-2,2.17-3.74,1.51-5.84a3.43,3.43,0,0,0-1.21-2c-.68-.44-1.15-.49-1-1.46.33-1.76,1.67-2.6,2.56-4a5.37,5.37,0,0,1,1.49-2c.8-.51,1.44-.26,1.18.77a1.73,1.73,0,0,0,1.75-.57c.28-.32.49-.68.76-1s.78-.53,1.05-.85c-.76.91.31,1.36,0,2.29a4,4,0,0,1-2,2.18,2.1,2.1,0,0,1-1.46,0,2.77,2.77,0,0,0-1.58.23c-.06.61.06,1.3.06,1.92s.35,1.45.83.66c.32-.52.33-1.09,1-1.33,1.56-.55-.29,3.08-.13,3.11,2.46.48,4.15-3.05,6.06-4.2,1.43-.86,6.11-3.24,5.61-5.26a1,1,0,0,0-1.3.41.81.81,0,0,0-.1.31c-.5-.47-2.18-.8-2.17-1.88,0-1.36,2-1.82,2.69-2.59,1.28-1.42-.54-.85-.59-2.6,0-1.4,1.41-2.45,1.92-.72,1.65.09,1.41-2.38,3-2.07.1,1.59-.34,3.18,1.63,2.22,1.14-.55,2.89-2.78,4.24-1.81a7.19,7.19,0,0,1-1.91,2.27c-.88.6-2.82.71-3.39,1.68-1.35,2.31,3.17-.27,3.85-.45,1-.27,2.27.2,3.2-.36.74-.43,1.08-1.43,1.68-2a24.38,24.38,0,0,1,4.24-3.19c1.71-1,3.91-1.36,4.23-3.76-.38.06-.88-.12-1.26-.06-.13-1.5,2.34-4.6,3.91-4.22-.24.81-1.59,2.8.06,2.49.62-.12,1.44-1.55,1.82-2,1.32-1.57,1.88-2.46.39-4-.74-.8-1.2-.9-1.3-2.12s.52-1.57-.56-2.61c-.78-.75-1.73-.58-1.69-2,0-.8.56-1.79,1.49-1.53,1.68.49,1.49,5,2.7,1.17,2.18-.13,2.83.07,2.14,2.21s-.36,2.33,2,2.45a2.48,2.48,0,0,1-.66,2.27c1.83.16,3.09-1.85,4.7-2.48,2.13-.83,4.31-1.6,6.46-2.4a21.18,21.18,0,0,1,3.48-1l.18-.23c.19-.26.44-.52.63-.78s.19-.32.25-.45l.38-.39a3.66,3.66,0,0,0,.31-2,4.61,4.61,0,0,1,0-.91c.06-.39.44-.65.63-1a3.39,3.39,0,0,0,.38-2.07c-.06-.78-.75-1.37-1.13-2a3.84,3.84,0,0,1-.7-2c.07-.71.95-1.17,1.2-1.88a4.61,4.61,0,0,0-.31-2.08,3.39,3.39,0,0,1,.19-2.26,8.25,8.25,0,0,1,.44-1.17,5.43,5.43,0,0,0,.56-1.1,11.83,11.83,0,0,0,.19-2.14c.07-.39.44-.52.64-.84a1.73,1.73,0,0,0,.06-1.1,7.78,7.78,0,0,0-.82-2.08"/><path id="f828d507-fb3c-458e-9b42-ce65a2f8e15c" data-name="Path 2179" class="a13f30a3-e631-464a-a101-6bf2c848733c" d="M218,114.79a7.6,7.6,0,0,1-.38-1,3.38,3.38,0,0,1,.06-1.1,9.74,9.74,0,0,0,.32-3.31,5.58,5.58,0,0,0-.89-2c-.37-.65-.94-1.1-1.32-1.75-.19-.32-.38-.71-.57-1a7.59,7.59,0,0,1-.62-.84A7.76,7.76,0,0,1,214,102c-.12-.52,0-1.23-.31-1.62-.6-.75-1-.91-1.12-2s-.29-.82-.88-1.44a5,5,0,0,1-1.53-3.17l-.58-18.64-.43-13.76c-1-.43-1.93.37-2.84,1a3.38,3.38,0,0,1-1.38.4c-.58.11-1.1.8-1.7.6s-.7-.76-1.06-1.2l-.3-.35-.52-.56A5.34,5.34,0,0,0,200,60a2.58,2.58,0,0,0-1.64-.25c-1.13,0-1.41-1.29-2.4-1.54-.55-.14-1,.21-1.45.13s-.93-.64-1.34-.89a8.6,8.6,0,0,0-2.63-1.06,3.5,3.5,0,0,0-1.7.09c-.65.21-1,.81-1.64,1-1.11.25-1.68-1-2.83-.86-1.86.17-3.79.64-5.62,1a16.64,16.64,0,0,1-3.59.37,18.78,18.78,0,0,0-3.67.25,3.68,3.68,0,0,1-3.2-.56,3.9,3.9,0,0,0-3.22-.27c-.57.14-1.14.62-1.75.6-.79,0-.71-.83-1.58-.74a4.79,4.79,0,0,1-1.77,0c-.51-.13-.88-.4-1.39-.31-1.08.2-1.62,1.36-2.7,1.62-.88.21-2.27.3-2.85-.53A10.48,10.48,0,0,0,152,56.77c-.82-.92-1.09-1.79-2.32-.64-.64.61-1.83,2.06-2.85,1.69s-1.46-2.17-2.1-2.94c-.4-.48-.71-1.43-1.29-1.7s-.83.14-1.34.37-.74,0-1.33-.3-1.12.1-1.62-.12c-.67.3-1.69-.42-2.16-.9-.29-.3-.45-.69-.88-.83s-.7.15-1.15.12c-.86-.6-2,0-3-.33a13.94,13.94,0,0,0-1.58-.21c-.65-.12-1.22-.26-1.87-.33a1.41,1.41,0,0,1-1.3-.88c-.56-1.15-1-2.74-2.06-3.49-1.28-.87-2.38,0-3.72-.15-1.1-.1-1.58-1.22-2.78-1-.63.1-.94.39-1.57.08s-.45-.85-.88-1.31-.74-.37-1-1a2.55,2.55,0,0,0-2.26-1.56.62.62,0,0,1-.38-.06c-.18-.12-.08-.3-.18-.43l1.19-38.49C111.11,2.21,76,.86,67,.52l-5,90.19L.68,87l0,.1a3.17,3.17,0,0,0,.19.42s0,.1,0,.13.07.13.1.16a.63.63,0,0,0,.16.26c.09.06.22.1.31.16a2.09,2.09,0,0,1,.29.23c.19.13.5.26.44.55l-.06.19,1,.11a9.56,9.56,0,0,0,.47,1.15,4.36,4.36,0,0,0,1.65,1.65c.9.57.59,1.24,1,2.09C6.91,95.58,8.8,96,8.91,97.71A1.66,1.66,0,0,0,10,99.37a7.84,7.84,0,0,1,2.25,1.84,21.06,21.06,0,0,1,2.51,3.62,4,4,0,0,0,1.57,1.3,2.67,2.67,0,0,1,1.38,2,2.92,2.92,0,0,0,.89,2c.57.45,1.53.83,1.92,1.44s.61,1.47,1.08,2.12,1.22.56,2,.4c1.24-.27,1.21,1,1.83,1.66.48.49,1.3.63,1.62,1.29s0,2,0,2.78a9,9,0,0,0,.14,2.83c.58,1.79,1.94,3.25,2.51,5.07.66,2.09.84,4.36,1.89,6.31.89,1.63,2,3.16,3,4.74a22.94,22.94,0,0,0,4.07,4.45,14.59,14.59,0,0,0,2.6,2.1,19.31,19.31,0,0,0,2.9,1.21,8.89,8.89,0,0,1,2.84,1.69c.75.69,1.33,1.53,2.07,2.21A7.1,7.1,0,0,0,55.55,152c2-.69,2.12-3.4,3.25-5,.63-.9,1.48-1.6,2.16-2.45a8.82,8.82,0,0,0,1.4-2.79A8.48,8.48,0,0,1,65.77,137a10.87,10.87,0,0,1,5.13-1.85.71.71,0,0,1,.55-.23c.47.1.58.91,1.09,1.09s1.16-.23,1.74-.2a8.27,8.27,0,0,0,1.65.2c.5-.08,1-.38,1.47-.11s.64.71,1.13.89A2.1,2.1,0,0,0,80,136.7c.56-.19,1.23-.56,1.83-.36s.7.62,1.16.78,1,0,1.48.22a2.57,2.57,0,0,1,1,1c.64,1,.59,2.43,2,2.58a3.33,3.33,0,0,1,2.83,1.52,8.6,8.6,0,0,0,2,2.38c.38.28.83.45,1.07.89a11.8,11.8,0,0,1,.4,1.44A3.12,3.12,0,0,0,95,148.62c.53.3,1.19.27,1.63.72s.4,1.29.46,2,1.1.65,1.25,1.62a1.68,1.68,0,0,0,.42.95,2.12,2.12,0,0,1,.33,1,9.41,9.41,0,0,0,.51,2.34c.4,1.11,1.45,1.87,2.1,2.82a5.86,5.86,0,0,1,.83,2.35c.25.86.54,1.7.87,2.53s.93,1.37,1.44,2.19a4.17,4.17,0,0,1,.3,1.1c.18.57.68.87,1,1.29.64.73,1.63,1,2.18,1.87s0,1.34.78,2c.28.22.59.29.81.61a5.08,5.08,0,0,1,.39,1.07c.27.72,1,1.17,1.32,1.87a12.59,12.59,0,0,1,.82,2.17,2.56,2.56,0,0,0,1.4,1.68,6.75,6.75,0,0,1,1.91,1.49,15.3,15.3,0,0,1,1.25,2.1,9.87,9.87,0,0,1,1.12,2,12.92,12.92,0,0,1,.23,2.4c0,.6-.08,1.22,0,1.82a6.61,6.61,0,0,1,.24,1.09c0,1.07-.9,1.4.06,2.3.51.48.2,1,.56,1.56s.91.78,1.25,1.27a3.71,3.71,0,0,1,.38,1.7c.11.7.63.82,1.16,1.19a3.79,3.79,0,0,1,1.37,3.59c0,.54-.26,1-.33,1.56a2.67,2.67,0,0,0,.59,1.77c0-.07.19-.14.25-.24a7.73,7.73,0,0,1,1.37.56c.41.28.76.69,1.16,1s.93.52,1.38.81.63.58,1,.82c1,.67,2.35,1,3.1,2,.33.42.53.69,1.13.52a10.07,10.07,0,0,0,1.21-.53,3.87,3.87,0,0,1,1.28-.61,4.19,4.19,0,0,1,1.69,0,2.08,2.08,0,0,1,1.18.54c.31.33.43.62.86.82s.64.22.87.69a2.69,2.69,0,0,0,.62,1.09,5.87,5.87,0,0,0,2.36.66,8.42,8.42,0,0,1,1.23,0c.36.09.61.4.95.55,1.36.59,2.89-.69,4,.64.73.87,1.5.87,2.57,1.14a2.16,2.16,0,0,1,1,.54c.28.27.61.71,1,.81s.64-.2,1-.24.73.26,1,.14a2.86,2.86,0,0,0,.91-1.49,3.27,3.27,0,0,0-.44-1.58,21.28,21.28,0,0,0-1.34-2.86,27.64,27.64,0,0,0-1.82-2.1c-.87-1.21-.3-1.65,0-2.95a11.42,11.42,0,0,0-.19-7.1c-.32-.93-2.79-5.93-.08-5.18.9,3.73.51,7.68,1.67,11.34.32,1,2.76,7.77,3.91,6.84,1.66-1.34-2-8.74-2.34-10.4-1.72-7.81,1.39-14.57,3.58-21.78-2.71-.21-2.58,1.27-3.42,3.44-.55,1.4-.7,3.17-1.6,4.38-.37.5-1.45,2.87-2.26,1.78-.3-.41,0-.95.2-1.37a16.58,16.58,0,0,0,.66-2.18c.49-2,2.17-3.74,1.51-5.84a3.43,3.43,0,0,0-1.21-2c-.68-.44-1.15-.49-1-1.46.33-1.76,1.67-2.6,2.56-4a5.37,5.37,0,0,1,1.49-2c.8-.51,1.44-.26,1.18.77a1.73,1.73,0,0,0,1.75-.57c.28-.32.49-.68.76-1s.78-.53,1.05-.85c-.76.91.31,1.36,0,2.29a4,4,0,0,1-2,2.18,2.1,2.1,0,0,1-1.46,0,2.77,2.77,0,0,0-1.58.23c-.06.61.06,1.3.06,1.92s.35,1.45.83.66c.32-.52.33-1.09,1-1.33,1.56-.55-.29,3.08-.13,3.11,2.46.48,4.15-3.05,6.06-4.2,1.43-.86,6.11-3.24,5.61-5.26a1,1,0,0,0-1.3.41.81.81,0,0,0-.1.31c-.5-.47-2.18-.8-2.17-1.88,0-1.36,2-1.82,2.69-2.59,1.28-1.42-.54-.85-.59-2.6,0-1.4,1.41-2.45,1.92-.72,1.65.09,1.41-2.38,3-2.07.1,1.59-.34,3.18,1.63,2.22,1.14-.55,2.89-2.78,4.24-1.81a7.19,7.19,0,0,1-1.91,2.27c-.88.6-2.82.71-3.39,1.68-1.35,2.31,3.17-.27,3.85-.45,1-.27,2.27.2,3.2-.36.74-.43,1.08-1.43,1.68-2a24.38,24.38,0,0,1,4.24-3.19c1.71-1,3.91-1.36,4.23-3.76-.38.06-.88-.12-1.26-.06-.13-1.5,2.34-4.6,3.91-4.22-.24.81-1.59,2.8.06,2.49.62-.12,1.44-1.55,1.82-2,1.32-1.57,1.88-2.46.39-4-.74-.8-1.2-.9-1.3-2.12s.52-1.57-.56-2.61c-.78-.75-1.73-.58-1.69-2,0-.8.56-1.79,1.49-1.53,1.68.49,1.49,5,2.7,1.17,2.18-.13,2.83.07,2.14,2.21s-.36,2.33,2,2.45a2.48,2.48,0,0,1-.66,2.27c1.83.16,3.09-1.85,4.7-2.48,2.13-.83,4.31-1.6,6.46-2.4a21.18,21.18,0,0,1,3.48-1l.18-.23c.19-.26.44-.52.63-.78s.19-.32.25-.45l.38-.39a3.66,3.66,0,0,0,.31-2,4.61,4.61,0,0,1,0-.91c.06-.39.44-.65.63-1a3.39,3.39,0,0,0,.38-2.07c-.06-.78-.75-1.37-1.13-2a3.84,3.84,0,0,1-.7-2c.07-.71.95-1.17,1.2-1.88a4.61,4.61,0,0,0-.31-2.08,3.39,3.39,0,0,1,.19-2.26,8.25,8.25,0,0,1,.44-1.17,5.43,5.43,0,0,0,.56-1.1,11.83,11.83,0,0,0,.19-2.14c.07-.39.44-.52.64-.84a1.73,1.73,0,0,0,.06-1.1A7.58,7.58,0,0,0,218,114.79Z"/></g></g></svg>