<svg xmlns="http://www.w3.org/2000/svg" viewBox="0 0 111.23 60.84"><defs><style>.a20690e3-7048-4362-b884-28b323285e2d{fill:#072f4c;}.fb2f39b7-af0b-477a-b1d4-5b8b0fe77876{fill:none;stroke:#89bcdc;stroke-miterlimit:10;}</style></defs><g id="ae90a77f-d47f-405a-ba55-b1313e6a0745" data-name="Layer 2"><g id="b50b0dcb-919d-4db3-822a-fccd5b3612b3" data-name="Layer 1"><path id="a1f982a3-fa04-4687-adf2-4cdd47a10909" data-name="Path 2166" class="a20690e3-7048-4362-b884-28b323285e2d" d="M110.66,28.35h0l-.07.06,0,0a.1.1,0,0,0,0,0h0c-.78.62-1.36,1.78-2.11,2.37l-.25.16a.41.41,0,0,1-.11.07l-.46.22a3.75,3.75,0,0,0-.76.48,2.68,2.68,0,0,0-.3.28l-.1.1,0,0c-.11.12-.24.26-.37.43s-.35.39-.54.58l-.17.18-.4.4a1.85,1.85,0,0,0-.14.14,9.86,9.86,0,0,0-.91,1c-1.08,1.41-1.39,3.5-2.35,5a5.52,5.52,0,0,1-.46.62l-.14.16,0,0-.28.26-.07.05-.12.08-.11.08a1.87,1.87,0,0,1-.32.15l-.11,0-.2.06-.47.08-.9.09h-.12l-.11,0-.21,0-.26.08h0a.88.88,0,0,0-.2.09l0,0-.09.06-.2.17a1.14,1.14,0,0,0-.11.11c-.2.22-.39.49-.7.8l-.12.12-.12.1-.11.09-.12.09-.13.08-.11.07a5.68,5.68,0,0,1-.55.28l-.13.06L94.7,44l-.7.3a7,7,0,0,0-.87.43l-.4.28a7,7,0,0,1-1.2.81l-.16.08-.5.22-.19.07-.85.28-.32.11a9.17,9.17,0,0,0-.91.38l-.55.3a6.22,6.22,0,0,0-.65.45.71.71,0,0,0-.14.1l-.25.21-.21.19-.14.14-.21.23-.07.08-.06.07h0a2.91,2.91,0,0,0-.26.33L86,49.2l-.12.18h0l-3.6.46-2.64.33-.8.1-1.33.16-2.07.26-1.2.14c-4.14.5-8.21,1-12.16,1.37l-1.84.19-.19,0-2.79.28a2.58,2.58,0,0,0-.29,0l-1.64.15-4.28.4-1.59.13-5,.4-1.58.12L41.8,54l-1.65.11c-1.78.11-3.5.2-5.18.28l-1.57.07-1.66.07-1.56,0q-3.12.09-5.91.07h0L24,59.69s-17.94.62-23.4.65c.06-.23.1-.47.16-.69l.06-.23h0l.06-.2A1.59,1.59,0,0,1,1,59a1,1,0,0,1,.07-.15,1.76,1.76,0,0,1,.14-.23c.88-1.17,1.56-.09,2.65-.52s.63-3.51.56-4.54a7.1,7.1,0,0,0-.51-3.12,5.08,5.08,0,0,0,1.72-1.93c.95-1.36,1.51-2.72,3.22-2.92,1.51-.2,2.83.39,4.35.58,1.89.39,2.26-1,2.83-2.72,0-.39.38-1,.19-1.36-.19-.58-.94-1-.94-1.55,0-2,4.54.58,4.72-2-.18-1-.94-1.75-.94-2.71,0-1.18,1.15-1.06,1.68-1.87a2.42,2.42,0,0,0,.42-1.63,4.68,4.68,0,0,1,.06-1.12c.55-2.76,2.54-2.52,4.83-3a13.83,13.83,0,0,1,6.82.33c.67.18,1.14.57,1.89.45,1-.17.75-.69,1.46-1,1.41-.59,1.9,0,3.25.21,2.57.4,4.55-2,4.34-4.65-.23,0-.48-.06-.7-.06a2.18,2.18,0,0,1,1.67-2.12c1.19-.2,1.31.53,2.12,1.13.61.46,1.83,1.79,2.56,1.84s1.21-.76,2.14-.83c1.22-.09,1.22,1.38,2.22-.38.43-.74.18-2,.23-2.92.14-2.58,1-2.84,3.18-3.72a40.69,40.69,0,0,0,1-4.64c.17-1.85,0-2.55,1.7-3.11.66-.22,1.41.07,2.08-.2s.83-.91,1.5-1.17c1.43-.56,3,.24,4.22-1.11,1.55-1.74-.46-2.33.09-3.94A3.06,3.06,0,0,1,69.31,1.1,5.25,5.25,0,0,1,71.23.5c.91,0,1,.59,1.75.74s1.66-.16,2.41.05c1.26.33,2.54,1.49,3.79,2.13a21.61,21.61,0,0,0,4.16,1.8c1.62.44,2.72,0,4.35-.06,3,0,5.25-1,8.13.06,2.45.88,3.79,1.5,4.6,3.28l.1.22.12.32a.93.93,0,0,1,0,.13,12.83,12.83,0,0,1,.44,1.83c.38,2.29,1.8,4.52,2.94,6.67l.47.91a15.46,15.46,0,0,0,.94,1.68c.16.26.32.51.5.75.33.49.69.95,1.06,1.41.55.7,1.15,1.42,1.8,2.24a9,9,0,0,1,1.85,3.67"/><path id="ac57b3ae-3703-4de1-9392-cf85cf8e793d" data-name="Path 2167" class="fb2f39b7-af0b-477a-b1d4-5b8b0fe77876" d="M110.66,28.35h0l-.07.06,0,0a.1.1,0,0,0,0,0h0c-.78.62-1.36,1.78-2.11,2.37l-.25.16a.41.41,0,0,1-.11.07l-.46.22a3.75,3.75,0,0,0-.76.48,2.68,2.68,0,0,0-.3.28l-.1.1,0,0c-.11.12-.24.26-.37.43s-.35.39-.54.58l-.17.18-.4.4a1.85,1.85,0,0,0-.14.14,9.86,9.86,0,0,0-.91,1c-1.08,1.41-1.39,3.5-2.35,5a5.52,5.52,0,0,1-.46.62l-.14.16,0,0-.28.26-.07.05-.12.08-.11.08a1.87,1.87,0,0,1-.32.15l-.11,0-.2.06-.47.08-.9.09h-.12l-.11,0-.21,0-.26.08h0a.88.88,0,0,0-.2.09l0,0-.09.06-.2.17a1.14,1.14,0,0,0-.11.11c-.2.22-.39.49-.7.8l-.12.12-.12.1-.11.09-.12.09-.13.08-.11.07a5.68,5.68,0,0,1-.55.28l-.13.06L94.7,44l-.7.3a7,7,0,0,0-.87.43l-.4.28a7,7,0,0,1-1.2.81l-.16.08-.5.22-.19.07-.85.28-.32.11a9.17,9.17,0,0,0-.91.38l-.55.3a6.22,6.22,0,0,0-.65.45.71.71,0,0,0-.14.1l-.25.21-.21.19-.14.14-.21.23-.07.08-.06.07h0a2.91,2.91,0,0,0-.26.33L86,49.2l-.12.18h0l-3.6.46-2.64.33-.8.1-1.33.16-2.07.26-1.2.14c-4.14.5-8.21,1-12.16,1.37l-1.84.19-.19,0-2.79.28a2.58,2.58,0,0,0-.29,0l-1.64.15-4.28.4-1.59.13-5,.4-1.58.12L41.8,54l-1.65.11c-1.78.11-3.5.2-5.18.28l-1.57.07-1.66.07-1.56,0q-3.12.09-5.91.07h0L24,59.69s-17.94.62-23.4.65c.06-.23.1-.47.16-.69l.06-.23h0l.06-.2A1.59,1.59,0,0,1,1,59a1,1,0,0,1,.07-.15,1.76,1.76,0,0,1,.14-.23c.88-1.17,1.56-.09,2.65-.52s.63-3.51.56-4.54a7.1,7.1,0,0,0-.51-3.12,5.08,5.08,0,0,0,1.72-1.93c.95-1.36,1.51-2.72,3.22-2.92,1.51-.2,2.83.39,4.35.58,1.89.39,2.26-1,2.83-2.72,0-.39.38-1,.19-1.36-.19-.58-.94-1-.94-1.55,0-2,4.54.58,4.72-2-.18-1-.94-1.75-.94-2.71,0-1.18,1.15-1.06,1.68-1.87a2.42,2.42,0,0,0,.42-1.63,4.68,4.68,0,0,1,.06-1.12c.55-2.76,2.54-2.52,4.83-3a13.83,13.83,0,0,1,6.82.33c.67.18,1.14.57,1.89.45,1-.17.75-.69,1.46-1,1.41-.59,1.9,0,3.25.21,2.57.4,4.55-2,4.34-4.65-.23,0-.48-.06-.7-.06a2.18,2.18,0,0,1,1.67-2.12c1.19-.2,1.31.53,2.12,1.13.61.46,1.83,1.79,2.56,1.84s1.21-.76,2.14-.83c1.22-.09,1.22,1.38,2.22-.38.43-.74.18-2,.23-2.92.14-2.58,1-2.84,3.18-3.72a40.69,40.69,0,0,0,1-4.64c.17-1.85,0-2.55,1.7-3.11.66-.22,1.41.07,2.08-.2s.83-.91,1.5-1.17c1.43-.56,3,.24,4.22-1.11,1.55-1.74-.46-2.33.09-3.94A3.06,3.06,0,0,1,69.31,1.1,5.25,5.25,0,0,1,71.23.5c.91,0,1,.59,1.75.74s1.66-.16,2.41.05c1.26.33,2.54,1.49,3.79,2.13a21.61,21.61,0,0,0,4.16,1.8c1.62.44,2.72,0,4.35-.06,3,0,5.25-1,8.13.06,2.45.88,3.79,1.5,4.6,3.28l.1.22.12.32a.93.93,0,0,1,0,.13,12.83,12.83,0,0,1,.44,1.83c.38,2.29,1.8,4.52,2.94,6.67l.47.91a15.46,15.46,0,0,0,.94,1.68c.16.26.32.51.5.75.33.49.69.95,1.06,1.41.55.7,1.15,1.42,1.8,2.24A8.9,8.9,0,0,1,110.66,28.35Z"/></g></g></svg>